<?xml version="1.0" encoding="UTF-8"?>
<svg version="1.1" xmlns="http://www.w3.org/2000/svg" width="200" height="200">
<path d="M0 0 C2 0.9375 2 0.9375 3.09912109 3.50708008 C4.09543622 7.30090768 4.3503953 10.86718191 4.4140625 14.76171875 C4.44331566 15.90649689 4.44331566 15.90649689 4.47315979 17.07440186 C4.5340032 19.59115682 4.58029795 22.10790998 4.625 24.625 C4.66173055 26.39005815 4.69859821 28.15511344 4.7355957 29.92016602 C4.98259863 42.46088131 5.12428801 55.00426523 5.17523193 67.54727173 C5.18335175 69.41884877 5.19441651 71.29041555 5.20855713 73.16195679 C5.22644409 75.79426264 5.23045286 78.4262342 5.23046875 81.05859375 C5.23760391 81.8258075 5.24473907 82.59302124 5.25209045 83.38348389 C5.21046938 93.45813939 2.91603049 104.79801358 -4.234375 112.2734375 C-18.01815395 123.7884578 -32.88917282 124.29366282 -50.11499023 124.25317383 C-52.92796506 124.25001072 -55.73988863 124.27354908 -58.55273438 124.29882812 C-73.90705097 124.3532267 -87.63864281 123.08939625 -99.3125 112.125 C-107.79759656 103.08322713 -109.50120763 92.1051432 -109.25 79.984375 C-108.31785378 68.62384293 -104.41705455 58.37568046 -96.015625 50.50390625 C-87.01006452 43.50539898 -76.93863484 41.62896004 -65.83203125 41.6015625 C-64.87536057 41.5949057 -63.91868988 41.5882489 -62.93302917 41.58139038 C-60.91687935 41.57131184 -58.90069648 41.56657187 -56.88452148 41.56689453 C-53.83845439 41.56253713 -50.79385683 41.52620918 -47.74804688 41.48828125 C-22.03030973 41.34009166 -22.03030973 41.34009166 -12 49.9375 C-12 50.5975 -12 51.2575 -12 51.9375 C-11.34 51.9375 -10.68 51.9375 -10 51.9375 C-8.68 53.5875 -7.36 55.2375 -6 56.9375 C-5.34 38.4575 -4.68 19.9775 -4 0.9375 C-2 -0.0625 -2 -0.0625 0 0 Z M-89 58.9375 C-89.33 59.9275 -89.66 60.9175 -90 61.9375 C-90.99 62.2675 -91.98 62.5975 -93 62.9375 C-98.06495051 70.91863414 -99.80005535 80.25929516 -98.5 89.625 C-96.6175415 97.89092352 -92.19425893 105.32231503 -85 109.9375 C-75.47695892 115.17445224 -65.03271605 114.54724333 -54.4934082 114.45898438 C-51.44076309 114.43752294 -48.39046459 114.45886534 -45.33789062 114.484375 C-43.36978655 114.48173184 -41.40168392 114.4766071 -39.43359375 114.46875 C-38.53539413 114.47684692 -37.63719452 114.48494385 -36.71177673 114.49328613 C-27.49925142 114.35894944 -19.54822973 111.48572973 -13 104.9375 C-6.6875381 97.44694633 -4.92934701 89.66406171 -5 79.9375 C-6.21052033 70.32454446 -9.80824844 63.6333434 -16.875 57.125 C-26.53701975 50.36158618 -37.58008268 50.75093823 -48.96801758 50.75219727 C-51.1644261 50.75002284 -53.36032143 50.73186052 -55.55664062 50.71289062 C-73.61888706 50.48049413 -73.61888706 50.48049413 -89 58.9375 Z " fill="#3B4A7C" transform="translate(152,33.0625)"/>
<path d="M0 0 C2.67055806 0.04970872 5.33927312 0.06150782 8.01025391 0.06713867 C9.72251297 0.08121705 11.43475618 0.09741872 13.14697266 0.1159668 C14.33308136 0.12401085 14.33308136 0.12401085 15.54315186 0.13221741 C22.44913699 0.27980702 27.81687111 1.52543207 32.91259766 6.48706055 C36.06996138 10.93703626 38.39064381 15.40902866 37.52978516 20.9519043 C35.8430572 26.57137164 34.28938113 30.49932449 29.91259766 34.48706055 C24.15886274 37.07248697 19.43647733 37.95414672 13.17041016 37.95581055 C12.36199677 37.96342407 11.55358337 37.9710376 10.72067261 37.97888184 C9.02149521 37.98961862 7.32225217 37.99256229 5.62304688 37.98803711 C3.05045361 37.9870654 0.48085494 38.02874366 -2.09130859 38.07299805 C-12.43677973 38.14768621 -20.79409505 37.64803516 -28.58740234 30.04956055 C-32.11755522 24.01888271 -32.64854348 19.21287913 -31.08740234 12.48706055 C-29.66086561 7.93486372 -27.26785687 5.21971359 -23.16162109 2.8112793 C-15.80777579 -0.71245209 -7.97525537 -0.15129811 0 0 Z M-15.08740234 13.48706055 C-16.46865252 16.2495609 -16.27819541 18.43437154 -16.08740234 21.48706055 C-14.20365772 23.76762353 -14.20365772 23.76762353 -11.14990234 23.92456055 C-7.93325704 23.80146804 -7.93325704 23.80146804 -6.08740234 21.23706055 C-4.83729895 18.60561094 -4.83729895 18.60561094 -5.64990234 16.29956055 C-8.36213875 12.8797842 -10.96393009 11.78079617 -15.08740234 13.48706055 Z M12.91259766 13.48706055 C12.25259766 15.46706055 11.59259766 17.44706055 10.91259766 19.48706055 C13.06047768 22.03269613 14.1917616 23.3669212 17.53759766 23.92456055 C18.32134766 23.78018555 19.10509766 23.63581055 19.91259766 23.48706055 C22.22400061 20.72557898 22.22400061 20.72557898 21.60009766 17.92456055 C21.00019928 15.50591444 21.00019928 15.50591444 19.91259766 13.48706055 C17.60259766 13.48706055 15.29259766 13.48706055 12.91259766 13.48706055 Z " fill="#17CBC7" transform="translate(97.08740234375,97.512939453125)"/>
<path d="M0 0 C0.66 0.33 1.32 0.66 2 1 C1.34 2.32 0.68 3.64 0 5 C1.65 4.67 3.3 4.34 5 4 C4.67 4.99 4.34 5.98 4 7 C5.32 7 6.64 7 8 7 C8 6.34 8 5.68 8 5 C9.32 5.33 10.64 5.66 12 6 C11.52949219 6.31453125 11.05898437 6.6290625 10.57421875 6.953125 C5.59827349 10.37344348 2.56731497 13.47039854 0 19 C-0.66 19 -1.32 19 -2 19 C-2.06058594 19.73605469 -2.12117188 20.47210938 -2.18359375 21.23046875 C-2.26738281 22.20628906 -2.35117187 23.18210937 -2.4375 24.1875 C-2.51871094 25.15042969 -2.59992187 26.11335938 -2.68359375 27.10546875 C-3 30 -3 30 -3.5703125 32.5390625 C-4.91425561 40.2361912 -1.76860888 47.55798021 2.34765625 53.8984375 C5.32680026 57.68751428 8.41359231 59.47119744 13 61 C13 61.66 13 62.32 13 63 C15.31 63.33 17.62 63.66 20 64 C19.071875 64.4021875 19.071875 64.4021875 18.125 64.8125 C15.7004767 65.95556848 15.7004767 65.95556848 14 69 C15.65 69.33 17.3 69.66 19 70 C19 70.66 19 71.32 19 72 C21.65696758 72.88565586 23.28190083 73.1450262 26.01245117 73.20532227 C26.81305466 73.22526749 27.61365814 73.24521271 28.43852234 73.26576233 C29.29798965 73.28247482 30.15745697 73.29918732 31.04296875 73.31640625 C31.9265657 73.33718735 32.81016266 73.35796844 33.72053528 73.37937927 C36.54277785 73.44475754 39.36511335 73.50370528 42.1875 73.5625 C44.10092106 73.60569637 46.01433273 73.64931102 47.92773438 73.69335938 C52.61839437 73.80042695 57.30914783 73.90172752 62 74 C62 74.33 62 74.66 62 75 C56.23830927 75.07484211 50.47690916 75.12892549 44.71484375 75.16479492 C42.7597154 75.1797675 40.80461997 75.20015281 38.84960938 75.22631836 C22.37087643 75.44114847 7.34386431 75.074693 -5.3125 63.1875 C-13.79759656 54.14572713 -15.50120763 43.1676432 -15.25 31.046875 C-14.2013027 18.26587669 -9.49218884 8.50740844 0 0 Z " fill="#36457A" transform="translate(58,82)"/>
<path d="M0 0 C2.67055806 0.04970872 5.33927312 0.06150782 8.01025391 0.06713867 C9.72251297 0.08121705 11.43475618 0.09741872 13.14697266 0.1159668 C14.33308136 0.12401085 14.33308136 0.12401085 15.54315186 0.13221741 C22.44913699 0.27980702 27.81687111 1.52543207 32.91259766 6.48706055 C36.06996138 10.93703626 38.39064381 15.40902866 37.52978516 20.9519043 C35.8430572 26.57137164 34.28938113 30.49932449 29.91259766 34.48706055 C24.15886274 37.07248697 19.43647733 37.95414672 13.17041016 37.95581055 C12.36199677 37.96342407 11.55358337 37.9710376 10.72067261 37.97888184 C9.02149521 37.98961862 7.32225217 37.99256229 5.62304688 37.98803711 C3.05045361 37.9870654 0.48085494 38.02874366 -2.09130859 38.07299805 C-12.43677973 38.14768621 -20.79409505 37.64803516 -28.58740234 30.04956055 C-32.11755522 24.01888271 -32.64854348 19.21287913 -31.08740234 12.48706055 C-29.66086561 7.93486372 -27.26785687 5.21971359 -23.16162109 2.8112793 C-15.80777579 -0.71245209 -7.97525537 -0.15129811 0 0 Z M-3.08740234 4.48706055 C-3.08740234 5.14706055 -3.08740234 5.80706055 -3.08740234 6.48706055 C-4.07740234 6.81706055 -5.06740234 7.14706055 -6.08740234 7.48706055 C-5.75740234 9.46706055 -5.42740234 11.44706055 -5.08740234 13.48706055 C-4.42740234 13.48706055 -3.76740234 13.48706055 -3.08740234 13.48706055 C-3.08740234 15.79706055 -3.08740234 18.10706055 -3.08740234 20.48706055 C-3.74740234 20.48706055 -4.40740234 20.48706055 -5.08740234 20.48706055 C-5.74740234 21.47706055 -6.40740234 22.46706055 -7.08740234 23.48706055 C-8.96240234 23.88549805 -8.96240234 23.88549805 -11.08740234 23.86206055 C-11.78865234 23.86979492 -12.48990234 23.8775293 -13.21240234 23.88549805 C-15.08740234 23.48706055 -15.08740234 23.48706055 -17.08740234 20.48706055 C-16.77490234 17.61206055 -16.77490234 17.61206055 -16.08740234 14.48706055 C-15.90177734 13.53831055 -15.71615234 12.58956055 -15.52490234 11.61206055 C-15.38052734 10.91081055 -15.23615234 10.20956055 -15.08740234 9.48706055 C-14.13865234 9.69331055 -13.18990234 9.89956055 -12.21240234 10.11206055 C-10.66552734 10.29768555 -10.66552734 10.29768555 -9.08740234 10.48706055 C-8.42740234 9.82706055 -7.76740234 9.16706055 -7.08740234 8.48706055 C-10.08210603 5.39575351 -12.34983659 4.14386695 -16.58740234 3.92456055 C-20.13916655 4.08948492 -20.96426709 4.39128869 -23.89990234 6.67456055 C-24.62177734 7.60268555 -25.34365234 8.53081055 -26.08740234 9.48706055 C-27.23208984 10.56987305 -27.23208984 10.56987305 -28.39990234 11.67456055 C-30.90596755 15.8513359 -30.76557581 19.73205118 -30.08740234 24.48706055 C-28.77512801 27.52171757 -28.77512801 27.52171757 -27.08740234 29.48706055 C-26.42740234 28.49706055 -25.76740234 27.50706055 -25.08740234 26.48706055 C-25.00490234 27.08518555 -24.92240234 27.68331055 -24.83740234 28.29956055 C-23.7979811 31.33120585 -22.93013893 31.94842122 -20.08740234 33.48706055 C-16.86793645 33.91680826 -13.67447141 33.85931772 -10.43115234 33.81518555 C-9.4918689 33.81331238 -8.55258545 33.81143921 -7.58483887 33.80950928 C-5.60111943 33.80279388 -3.61741312 33.78888956 -1.63378906 33.76831055 C1.4013298 33.73717613 4.43592871 33.72733977 7.47119141 33.72143555 C9.39958315 33.71226417 11.32796961 33.70188797 13.25634766 33.69018555 C14.61741638 33.68381073 14.61741638 33.68381073 16.00598145 33.67730713 C16.85366089 33.66769958 17.70134033 33.65809204 18.57470703 33.64819336 C19.6891217 33.63795135 19.6891217 33.63795135 20.8260498 33.62750244 C22.95992368 33.48387512 24.85855023 33.06913492 26.91259766 32.48706055 C26.91259766 31.49706055 26.91259766 30.50706055 26.91259766 29.48706055 C27.90259766 29.48706055 28.89259766 29.48706055 29.91259766 29.48706055 C29.91259766 28.49706055 29.91259766 27.50706055 29.91259766 26.48706055 C30.90259766 26.48706055 31.89259766 26.48706055 32.91259766 26.48706055 C32.91259766 24.50706055 32.91259766 22.52706055 32.91259766 20.48706055 C32.25259766 20.48706055 31.59259766 20.48706055 30.91259766 20.48706055 C31.57259766 19.49706055 32.23259766 18.50706055 32.91259766 17.48706055 C32.91259766 16.49706055 32.91259766 15.50706055 32.91259766 14.48706055 C30.60259766 15.14706055 28.29259766 15.80706055 25.91259766 16.48706055 C25.91259766 17.14706055 25.91259766 17.80706055 25.91259766 18.48706055 C26.57259766 18.81706055 27.23259766 19.14706055 27.91259766 19.48706055 C28.40759766 20.97206055 28.40759766 20.97206055 28.91259766 22.48706055 C27.26259766 22.15706055 25.61259766 21.82706055 23.91259766 21.48706055 C21.93259766 24.45706055 21.93259766 24.45706055 19.91259766 27.48706055 C17.27259766 27.15706055 14.63259766 26.82706055 11.91259766 26.48706055 C12.40759766 25.00206055 12.40759766 25.00206055 12.91259766 23.48706055 C12.25259766 22.82706055 11.59259766 22.16706055 10.91259766 21.48706055 C10.58920412 18.44716131 10.45589554 16.34337702 11.91259766 13.61206055 C15.1657345 11.78217107 18.22649875 12.30577699 21.91259766 12.48706055 C21.91259766 11.49706055 21.91259766 10.50706055 21.91259766 9.48706055 C20.59259766 8.82706055 19.27259766 8.16706055 17.91259766 7.48706055 C17.91259766 5.48706055 17.91259766 5.48706055 19.91259766 3.48706055 C16.4542818 3.45811508 12.99599693 3.44028054 9.53759766 3.42456055 C8.55275391 3.41618164 7.56791016 3.40780273 6.55322266 3.39916992 C5.61220703 3.39594727 4.67119141 3.39272461 3.70166016 3.3894043 C2.83234863 3.38416748 1.96303711 3.37893066 1.06738281 3.37353516 C-1.13790228 3.34583703 -1.13790228 3.34583703 -3.08740234 4.48706055 Z M-15.08740234 13.48706055 C-16.46865252 16.2495609 -16.27819541 18.43437154 -16.08740234 21.48706055 C-14.20365772 23.76762353 -14.20365772 23.76762353 -11.14990234 23.92456055 C-7.93325704 23.80146804 -7.93325704 23.80146804 -6.08740234 21.23706055 C-4.83729895 18.60561094 -4.83729895 18.60561094 -5.64990234 16.29956055 C-8.36213875 12.8797842 -10.96393009 11.78079617 -15.08740234 13.48706055 Z M12.91259766 13.48706055 C12.25259766 15.46706055 11.59259766 17.44706055 10.91259766 19.48706055 C13.06047768 22.03269613 14.1917616 23.3669212 17.53759766 23.92456055 C18.32134766 23.78018555 19.10509766 23.63581055 19.91259766 23.48706055 C22.22400061 20.72557898 22.22400061 20.72557898 21.60009766 17.92456055 C21.00019928 15.50591444 21.00019928 15.50591444 19.91259766 13.48706055 C17.60259766 13.48706055 15.29259766 13.48706055 12.91259766 13.48706055 Z " fill="#1EC9C6" transform="translate(97.08740234375,97.512939453125)"/>
<path d="M0 0 C3.05640782 0.03675629 6.11160578 0.04101652 9.16821289 0.04052734 C11.13371806 0.05035272 13.09921512 0.06200718 15.06469727 0.07568359 C15.96694534 0.07790924 16.86919342 0.08013489 17.79878235 0.08242798 C23.25813806 0.16358156 27.986169 0.88499363 33.23266602 2.41162109 C33.23266602 3.07162109 33.23266602 3.73162109 33.23266602 4.41162109 C34.22266602 4.90662109 34.22266602 4.90662109 35.23266602 5.41162109 C29.99557028 9.8728508 24.47990715 9.56762556 17.85375977 9.65771484 C16.1929478 9.69068328 14.53214063 9.72389436 12.87133789 9.75732422 C10.28047309 9.80442198 7.68962335 9.84882368 5.09863281 9.88842773 C-3.81146286 10.03102342 -12.47810634 10.17298999 -21.23974609 11.99389648 C-24.11590516 12.4692281 -26.85732234 12.4771607 -29.76733398 12.41162109 C-29.76733398 13.07162109 -29.76733398 13.73162109 -29.76733398 14.41162109 C-31.08733398 14.41162109 -32.40733398 14.41162109 -33.76733398 14.41162109 C-33.76733398 13.75162109 -33.76733398 13.09162109 -33.76733398 12.41162109 C-34.75733398 12.41162109 -35.74733398 12.41162109 -36.76733398 12.41162109 C-37.42733398 13.07162109 -38.08733398 13.73162109 -38.76733398 14.41162109 C-38.44758202 10.68118156 -37.45747791 8.12655104 -34.61279297 5.60327148 C-24.36204778 -1.01584312 -11.66509513 -0.14525953 0 0 Z " fill="#344477" transform="translate(95.767333984375,74.58837890625)"/>
<path d="M0 0 C24.75 0.495 24.75 0.495 50 1 C49.67 2.32 49.34 3.64 49 5 C50.32 4.67 51.64 4.34 53 4 C53.495 5.485 53.495 5.485 54 7 C54.99 7.33 55.98 7.66 57 8 C54.03324152 8.8549802 51.3941547 9.12636969 48.31079102 9.12939453 C46.92398888 9.13412277 46.92398888 9.13412277 45.50917053 9.13894653 C44.51743332 9.1369223 43.52569611 9.13489807 42.50390625 9.1328125 C41.4782103 9.13376923 40.45251434 9.13472595 39.39573669 9.13571167 C37.22793517 9.13639174 35.06013159 9.13454952 32.89233398 9.13037109 C29.57856657 9.12502592 26.26493504 9.13031915 22.95117188 9.13671875 C20.8437497 9.13605783 18.73632761 9.13477638 16.62890625 9.1328125 C15.63919327 9.13483673 14.64948029 9.13686096 13.629776 9.13894653 C12.23824562 9.13421829 12.23824562 9.13421829 10.81860352 9.12939453 C10.00682144 9.12859894 9.19503937 9.12780334 8.35865784 9.12698364 C5.82798205 8.99073903 3.47046642 8.55268035 1 8 C1.66 7.67 2.32 7.34 3 7 C3 6.34 3 5.68 3 5 C1.02 5 -0.96 5 -3 5 C-2.01 3.35 -1.02 1.7 0 0 Z " fill="#23336B" transform="translate(74,147)"/>
<path d="M0 0 C2.67055806 0.04970872 5.33927312 0.06150782 8.01025391 0.06713867 C9.72251297 0.08121705 11.43475618 0.09741872 13.14697266 0.1159668 C14.33308136 0.12401085 14.33308136 0.12401085 15.54315186 0.13221741 C22.54710999 0.28190082 27.63031905 1.6330748 32.91259766 6.48706055 C34.78759766 8.54956055 34.78759766 8.54956055 35.91259766 10.48706055 C35.58259766 11.47706055 35.25259766 12.46706055 34.91259766 13.48706055 C34.17009766 12.70331055 33.42759766 11.91956055 32.66259766 11.11206055 C30.36826448 8.92201524 28.79100908 7.65974668 25.91259766 6.48706055 C25.91259766 5.82706055 25.91259766 5.16706055 25.91259766 4.48706055 C16.34259766 4.48706055 6.77259766 4.48706055 -3.08740234 4.48706055 C-3.08740234 5.14706055 -3.08740234 5.80706055 -3.08740234 6.48706055 C-3.74740234 7.14706055 -4.40740234 7.80706055 -5.08740234 8.48706055 C-5.25427682 11.07060273 -5.25427682 11.07060273 -5.08740234 13.48706055 C-4.42740234 13.48706055 -3.76740234 13.48706055 -3.08740234 13.48706055 C-3.08740234 15.79706055 -3.08740234 18.10706055 -3.08740234 20.48706055 C-3.74740234 20.48706055 -4.40740234 20.48706055 -5.08740234 20.48706055 C-5.74740234 21.80706055 -6.40740234 23.12706055 -7.08740234 24.48706055 C-14.47273412 24.9713446 -14.47273412 24.9713446 -17.14990234 22.86206055 C-19.07702999 17.98000384 -16.77332598 13.20764674 -15.08740234 8.48706055 C-12.11740234 8.98206055 -12.11740234 8.98206055 -9.08740234 9.48706055 C-9.41740234 8.16706055 -9.74740234 6.84706055 -10.08740234 5.48706055 C-11.83705593 5.43276095 -13.58720021 5.39413231 -15.33740234 5.36206055 C-16.31193359 5.33885742 -17.28646484 5.3156543 -18.29052734 5.29174805 C-21.13917619 5.49067604 -22.71234135 5.94164414 -25.08740234 7.48706055 C-26.25406901 9.40372721 -26.25406901 9.40372721 -27.08740234 11.48706055 C-28.07740234 12.97206055 -28.07740234 12.97206055 -29.08740234 14.48706055 C-29.54341495 16.9960274 -29.54341495 16.9960274 -29.71240234 19.67456055 C-29.78716797 20.57561523 -29.86193359 21.47666992 -29.93896484 22.4050293 C-29.98794922 23.09209961 -30.03693359 23.77916992 -30.08740234 24.48706055 C-32.58640653 20.73855426 -32.24141987 19.1257946 -31.60693359 14.83081055 C-30.58705332 10.22984693 -29.0775383 7.08033982 -25.34399414 4.09130859 C-17.28879533 -0.63331467 -9.05104957 -0.17170694 0 0 Z M-15.08740234 13.48706055 C-16.46865252 16.2495609 -16.27819541 18.43437154 -16.08740234 21.48706055 C-14.20365772 23.76762353 -14.20365772 23.76762353 -11.14990234 23.92456055 C-7.93325704 23.80146804 -7.93325704 23.80146804 -6.08740234 21.23706055 C-4.83729895 18.60561094 -4.83729895 18.60561094 -5.64990234 16.29956055 C-8.36213875 12.8797842 -10.96393009 11.78079617 -15.08740234 13.48706055 Z " fill="#71D5D3" transform="translate(97.08740234375,97.512939453125)"/>
<path d="M0 0 C1.875 0.0625 1.875 0.0625 4 1 C4.598125 1.78375 5.19625 2.5675 5.8125 3.375 C8.61995664 6.74394797 10.92385131 7.51063798 15 9 C15 9.66 15 10.32 15 11 C17.31 11.33 19.62 11.66 22 12 C21.38125 12.268125 20.7625 12.53625 20.125 12.8125 C17.7004767 13.95556848 17.7004767 13.95556848 16 17 C17.65 17.33 19.3 17.66 21 18 C21 18.66 21 19.32 21 20 C23.65696758 20.88565586 25.28190083 21.1450262 28.01245117 21.20532227 C28.81305466 21.22526749 29.61365814 21.24521271 30.43852234 21.26576233 C31.29798965 21.28247482 32.15745697 21.29918732 33.04296875 21.31640625 C33.9265657 21.33718735 34.81016266 21.35796844 35.72053528 21.37937927 C38.54277785 21.44475754 41.36511335 21.50370528 44.1875 21.5625 C46.10092106 21.60569637 48.01433273 21.64931102 49.92773438 21.69335938 C54.61839437 21.80042695 59.30914783 21.90172752 64 22 C64 22.33 64 22.66 64 23 C58.23830927 23.07484211 52.47690916 23.12892549 46.71484375 23.16479492 C44.7597154 23.1797675 42.80461997 23.20015281 40.84960938 23.22631836 C11.8709128 23.60410812 11.8709128 23.60410812 1 15 C-0.78788487 12.20131747 -1.37723873 9.65310646 -1.75 6.375 C-1.84796875 5.59898437 -1.9459375 4.82296875 -2.046875 4.0234375 C-2 2 -2 2 0 0 Z " fill="#36467A" transform="translate(56,134)"/>
<path d="M0 0 C2.26343873 3.39515809 2.21798942 3.87617282 1.5 7.6875 C0.27634288 12.98485108 -1.77402497 17.46747647 -6 21 C-11.77177272 23.54148503 -16.47207373 24.4670851 -22.7421875 24.46875 C-23.55060089 24.47636353 -24.35901428 24.48397705 -25.19192505 24.49182129 C-26.89110245 24.50255807 -28.59034549 24.50550174 -30.28955078 24.50097656 C-32.86214404 24.50000486 -35.43174271 24.54168311 -38.00390625 24.5859375 C-48.51329941 24.66200158 -56.79410214 24.08483047 -64.6875 16.375 C-65.120625 15.59125 -65.55375 14.8075 -66 14 C-65.67 13.01 -65.34 12.02 -65 11 C-64.01 12.485 -64.01 12.485 -63 14 C-62.34 13.67 -61.68 13.34 -61 13 C-60.54625 13.804375 -60.0925 14.60875 -59.625 15.4375 C-58.25274335 18.08856572 -58.25274335 18.08856572 -56 19 C-54.48835608 19.08977728 -52.97279821 19.11757433 -51.45849609 19.11352539 C-50.04725967 19.11341209 -50.04725967 19.11341209 -48.60751343 19.11329651 C-47.08089584 19.10555458 -47.08089584 19.10555458 -45.5234375 19.09765625 C-44.48305328 19.0962413 -43.44266907 19.09482635 -42.37075806 19.09336853 C-39.03880979 19.08775866 -35.70692805 19.07520447 -32.375 19.0625 C-30.11979264 19.05748627 -27.86458422 19.05292314 -25.609375 19.04882812 C-20.07289386 19.03778603 -14.53645168 19.02103827 -9 19 C-9 18.01 -9 17.02 -9 16 C-8.01 16 -7.02 16 -6 16 C-6 15.01 -6 14.02 -6 13 C-4.68 12.67 -3.36 12.34 -2 12 C-1.34 8.04 -0.68 4.08 0 0 Z " fill="#30C1BF" transform="translate(133,111)"/>
<path d="M0 0 C0.495 0.99 0.495 0.99 1 2 C1.99 2.33 2.98 2.66 4 3 C4 3.66 4 4.32 4 5 C3.34 5 2.68 5 2 5 C1.67 5.66 1.34 6.32 1 7 C0.34 6.67 -0.32 6.34 -1 6 C-1 7.65 -1 9.3 -1 11 C-4.4019487 13.09350689 -7.05272412 13.17942163 -11 13 C-11.495 12.01 -11.495 12.01 -12 11 C-13.32 11 -14.64 11 -16 11 C-16 10.01 -16 9.02 -16 8 C-37.78 7.505 -37.78 7.505 -60 7 C-60 6.67 -60 6.34 -60 6 C-45.48 6 -30.96 6 -16 6 C-15.67 5.34 -15.34 4.68 -15 4 C-13.35 4 -11.7 4 -10 4 C-9.67 3.34 -9.34 2.68 -9 2 C-7 1 -7 1 -5.0625 1.5625 C-4.381875 1.706875 -3.70125 1.85125 -3 2 C-2.01 1.34 -1.02 0.68 0 0 Z " fill="#20326B" transform="translate(139,141)"/>
<path d="M0 0 C4.5076467 0.53031138 7.41954788 2.25221116 11 5 C11 5.66 11 6.32 11 7 C11.66 7 12.32 7 13 7 C13 9 13 9 11.5 10.625 C11.005 11.07875 10.51 11.5325 10 12 C10.99 12.99 11.98 13.98 13 15 C12.67 15.66 12.34 16.32 12 17 C12.99 17.33 13.98 17.66 15 18 C15 19.65 15 21.3 15 23 C14.505 22.319375 14.01 21.63875 13.5 20.9375 C6.18283333 12.33982917 -0.80780506 8.16585364 -12 7 C-12 6.67 -12 6.34 -12 6 C-11.30132812 5.90203125 -10.60265625 5.8040625 -9.8828125 5.703125 C-8.51769531 5.47882813 -8.51769531 5.47882813 -7.125 5.25 C-6.22007813 5.11078125 -5.31515625 4.9715625 -4.3828125 4.828125 C-1.83785757 4.22016157 -1.83785757 4.22016157 -0.6796875 1.921875 C-0.34324219 0.97054687 -0.34324219 0.97054687 0 0 Z " fill="#4F5B88" transform="translate(129,78)"/>
<path d="M0 0 C5.61 0 11.22 0 17 0 C16.01 0.495 16.01 0.495 15 1 C15 1.66 15 2.32 15 3 C14.34 3.66 13.68 4.32 13 5 C12.83312552 7.58354218 12.83312552 7.58354218 13 10 C13.66 10 14.32 10 15 10 C15 12.31 15 14.62 15 17 C14.34 17 13.68 17 13 17 C12.34 18.32 11.68 19.64 11 21 C3.61466822 21.48428405 3.61466822 21.48428405 0.9375 19.375 C-0.98962765 14.49294329 1.31407636 9.72058619 3 5 C5.97 5.495 5.97 5.495 9 6 C8.67 4.68 8.34 3.36 8 2 C5.36 1.67 2.72 1.34 0 1 C0 0.67 0 0.34 0 0 Z M3 10 C1.61874982 12.76250036 1.80920694 14.94731099 2 18 C3.88374462 20.28056299 3.88374462 20.28056299 6.9375 20.4375 C10.15414531 20.31440749 10.15414531 20.31440749 12 17.75 C13.2501034 15.11855039 13.2501034 15.11855039 12.4375 12.8125 C9.72526359 9.39272366 7.12347225 8.29373562 3 10 Z " fill="#6DE3E2" transform="translate(79,101)"/>
<path d="M0 0 C2.97 0.33 5.94 0.66 9 1 C7.02 1.99 7.02 1.99 5 3 C4.01 4.485 4.01 4.485 3 6 C5.475 6.495 5.475 6.495 8 7 C8 7.66 8 8.32 8 9 C10.65696758 9.88565586 12.28190083 10.1450262 15.01245117 10.20532227 C15.81305466 10.22526749 16.61365814 10.24521271 17.43852234 10.26576233 C18.29798965 10.28247482 19.15745697 10.29918732 20.04296875 10.31640625 C21.36836418 10.3475779 21.36836418 10.3475779 22.72053528 10.37937927 C25.54277785 10.44475754 28.36511335 10.50370528 31.1875 10.5625 C33.10092106 10.60569637 35.01433273 10.64931102 36.92773438 10.69335938 C41.61839437 10.80042695 46.30914783 10.90172752 51 11 C51 11.33 51 11.66 51 12 C45.23830927 12.07484211 39.47690916 12.12892549 33.71484375 12.16479492 C31.7597154 12.1797675 29.80461997 12.20015281 27.84960938 12.22631836 C-0.06440264 12.59022803 -0.06440264 12.59022803 -12 4 C-12.33 3.34 -12.66 2.68 -13 2 C-11.68 2 -10.36 2 -9 2 C-8.67 2.99 -8.34 3.98 -8 5 C-5.69 5 -3.38 5 -1 5 C-0.67 3.35 -0.34 1.7 0 0 Z " fill="#7F8AAF" transform="translate(69,145)"/>
<path d="M0 0 C0.99 0.99 1.98 1.98 3 3 C3.66 2.67 4.32 2.34 5 2 C5.391875 2.763125 5.78375 3.52625 6.1875 4.3125 C8.31042135 7.46027993 9.54993917 8.4196532 13 10 C16.15051297 10.45980971 19.27680503 10.48838813 22.45703125 10.51171875 C23.35999435 10.52966995 24.26295746 10.54762115 25.19328308 10.56611633 C28.06630844 10.62013021 30.93916851 10.65408637 33.8125 10.6875 C35.76499691 10.72068096 37.71747204 10.75517134 39.66992188 10.79101562 C44.44649516 10.8758516 49.22302018 10.94270536 54 11 C51.04016396 13.95983604 47.81492354 13.3441198 43.84375 13.37109375 C43.02684692 13.38012222 42.20994385 13.3891507 41.36828613 13.39845276 C39.63325675 13.41298294 37.89817224 13.42184885 36.16308594 13.42553711 C33.53743357 13.43733184 30.91421119 13.4863974 28.2890625 13.53710938 C19.3074115 13.6239632 11.48748566 13.68371065 4 8 C1.375 5.375 1.375 5.375 0 3 C0 2.01 0 1.02 0 0 Z " fill="#B7F8F7" transform="translate(67,122)"/>
<path d="M0 0 C0.66 0.33 1.32 0.66 2 1 C2.51211281 7.40141012 2.11888494 10.98010898 -2 16 C-4.64 15.34 -7.28 14.68 -10 14 C-10.33 12.68 -10.66 11.36 -11 10 C-11.33 9.67 -11.66 9.34 -12 9 C-12.38972343 5.49248912 -12.36915723 3.5998805 -10.5 0.5625 C-6.70102714 -1.81185804 -4.33155755 -0.90822981 0 0 Z M-9 1 C-9.66 2.98 -10.32 4.96 -11 7 C-8.85211998 9.54563558 -7.72083605 10.87986066 -4.375 11.4375 C-3.59125 11.293125 -2.8075 11.14875 -2 11 C0.31140296 8.23851844 0.31140296 8.23851844 -0.3125 5.4375 C-0.91239838 3.01885389 -0.91239838 3.01885389 -2 1 C-4.31 1 -6.62 1 -9 1 Z " fill="#83E4E0" transform="translate(119,110)"/>
<path d="M0 0 C0.66 0.33 1.32 0.66 2 1 C1.34 2.32 0.68 3.64 0 5 C1.65 4.67 3.3 4.34 5 4 C4.67 4.99 4.34 5.98 4 7 C5.32 7 6.64 7 8 7 C8 6.34 8 5.68 8 5 C9.32 5.33 10.64 5.66 12 6 C11.52949219 6.32613281 11.05898437 6.65226562 10.57421875 6.98828125 C9.95160156 7.42527344 9.32898438 7.86226563 8.6875 8.3125 C7.76517578 8.95638672 7.76517578 8.95638672 6.82421875 9.61328125 C5.05354669 10.95929534 3.53261991 12.39192803 2 14 C1.67 13.01 1.34 12.02 1 11 C1.33 10.67 1.66 10.34 2 10 C-0.60582371 9.06934867 -1.64198224 8.85082593 -4.25 9.9375 C-4.8275 10.288125 -5.405 10.63875 -6 11 C-6 11.66 -6 12.32 -6 13 C-7.375 14.625 -7.375 14.625 -9 16 C-9.66 16 -10.32 16 -11 16 C-9.45364633 9.127317 -4.82740069 4.82740069 0 0 Z " fill="#54618D" transform="translate(58,82)"/>
<path d="M0 0 C0.33 0 0.66 0 1 0 C1.71511973 12.34858538 2.14420386 24.63051353 2 37 C1.67 37 1.34 37 1 37 C0.67 43.27 0.34 49.54 0 56 C-0.99 56 -1.98 56 -3 56 C-2.84112808 55.44781799 -2.68225616 54.89563599 -2.51856995 54.32672119 C-1.94826677 51.76788319 -1.7982695 49.39246899 -1.70288086 46.77246094 C-1.6429319 45.21129547 -1.6429319 45.21129547 -1.58177185 43.61859131 C-1.54318558 42.50179993 -1.5045993 41.38500854 -1.46484375 40.234375 C-1.42186661 39.08584045 -1.37888947 37.93730591 -1.33460999 36.75396729 C-1.19827442 33.08611176 -1.06781694 29.41807382 -0.9375 25.75 C-0.84609021 23.26300658 -0.75429802 20.77602718 -0.66210938 18.2890625 C-0.43696893 12.19286411 -0.21665402 6.09650557 0 0 Z " fill="#7D87AC" transform="translate(148,39)"/>
<path d="M0 0 C0.66 0.66 1.32 1.32 2 2 C-1.29646911 5.85776335 -1.29646911 5.85776335 -4.37921143 6.48101807 C-5.25857361 6.47213562 -6.13793579 6.46325317 -7.04394531 6.45410156 C-8.04468079 6.45379944 -9.04541626 6.45349731 -10.07647705 6.45318604 C-11.14952087 6.43254089 -12.2225647 6.41189575 -13.328125 6.390625 C-14.43226746 6.38496521 -15.53640991 6.37930542 -16.67401123 6.37347412 C-20.19978226 6.35108768 -23.72453624 6.30088496 -27.25 6.25 C-29.64061032 6.22993803 -32.03123658 6.21168674 -34.421875 6.1953125 C-40.28159687 6.15121543 -46.14072578 6.08427998 -52 6 C-52 5.67 -52 5.34 -52 5 C-37.48 5 -22.96 5 -8 5 C-7.67 4.34 -7.34 3.68 -7 3 C-5.35 3 -3.7 3 -2 3 C-1.67 2.34 -1.34 1.68 -1 1 C-0.67 0.67 -0.34 0.34 0 0 Z " fill="#BCC1DB" transform="translate(131,142)"/>
<path d="M0 0 C2.125 0.375 2.125 0.375 4 1 C5.3450373 6.08125204 4.6446488 10.06605361 3 15 C0.58010898 13.20459699 -0.80788381 11.75637354 -1.55859375 8.80078125 C-1.86115195 6.48116837 -2.13535406 4.33711351 -2 2 C-1.34 1.34 -0.68 0.68 0 0 Z " fill="#324275" transform="translate(56,134)"/>
<path d="M0 0 C0.33 0.99 0.66 1.98 1 3 C-1.74559001 7.34718419 -5.58060107 10.44197352 -10 13 C-10.66 13 -11.32 13 -12 13 C-12 11.68 -12 10.36 -12 9 C-10.35 8.67 -8.7 8.34 -7 8 C-7.37125 7.13375 -7.37125 7.13375 -7.75 6.25 C-8 4 -8 4 -6.3125 1.75 C-4 0 -4 0 0 0 Z " fill="#57618C" transform="translate(150,138)"/>
<path d="M0 0 C2.26343873 3.39515809 2.21798942 3.87617282 1.5 7.6875 C0.27769482 13.06564281 -1.95627699 17.21333517 -6 21 C-8.875 22 -8.875 22 -11 22 C-10.34 20.02 -9.68 18.04 -9 16 C-8.01 16 -7.02 16 -6 16 C-6 15.01 -6 14.02 -6 13 C-4.68 12.67 -3.36 12.34 -2 12 C-1.34 8.04 -0.68 4.08 0 0 Z " fill="#8EE4E4" transform="translate(133,111)"/>
<path d="M0 0 C-0.8125 1.9375 -0.8125 1.9375 -2 4 C-2.99 4.33 -3.98 4.66 -5 5 C-6.10836423 6.88316159 -6.10836423 6.88316159 -7 9 C-7.99 10.485 -7.99 10.485 -9 12 C-9.45601261 14.50896686 -9.45601261 14.50896686 -9.625 17.1875 C-9.69976562 18.08855469 -9.77453125 18.98960938 -9.8515625 19.91796875 C-9.90054688 20.60503906 -9.94953125 21.29210937 -10 22 C-12.4987469 18.25187965 -12.14062097 16.64641016 -11.5390625 12.3515625 C-10.43288295 7.5260546 -8.42650264 4.05289481 -4.375 1.0625 C-2 0 -2 0 0 0 Z " fill="#93E5E3" transform="translate(77,100)"/>
<path d="M0 0 C0.99 0.33 1.98 0.66 3 1 C3 2.98 3 4.96 3 7 C0.64561267 8.42944945 -0.48032433 9.08661261 -3.25 8.625 C-3.8275 8.41875 -4.405 8.2125 -5 8 C-4.1875 5.5625 -4.1875 5.5625 -3 3 C-2.01 2.67 -1.02 2.34 0 2 C0 1.34 0 0.68 0 0 Z " fill="#31427A" transform="translate(135,145)"/>
<path d="M0 0 C1.051875 0.5878125 1.051875 0.5878125 2.125 1.1875 C1.135 1.6825 1.135 1.6825 0.125 2.1875 C-0.52713292 4.21213255 -0.52713292 4.21213255 -0.875 6.1875 C-3.845 5.6925 -3.845 5.6925 -6.875 5.1875 C-6.875 4.5275 -6.875 3.8675 -6.875 3.1875 C-7.535 2.8575 -8.195 2.5275 -8.875 2.1875 C-3.58269231 -1.0125 -3.58269231 -1.0125 0 0 Z " fill="#22336B" transform="translate(58.875,90.8125)"/>
<path d="M0 0 C5.38796621 0.61576757 8.30182502 3.13200752 11.875 7.0625 C12.431875 8.0215625 12.431875 8.0215625 13 9 C12.67 9.99 12.34 10.98 12 12 C11.236875 11.21625 10.47375 10.4325 9.6875 9.625 C7.09108195 6.92742283 7.09108195 6.92742283 4 5 C4 4.01 4 3.02 4 2 C2.68 1.34 1.36 0.68 0 0 Z " fill="#88DFDE" transform="translate(120,99)"/>
<path d="M0 0 C0.28875 0.598125 0.5775 1.19625 0.875 1.8125 C2.04742026 4.19327792 2.04742026 4.19327792 4 7 C9.37290929 7.670718 9.37290929 7.670718 14 5.5 C14.33 5.005 14.66 4.51 15 4 C14.625 6.4375 14.625 6.4375 14 9 C11.55333494 10.22333253 10.20770626 10.04546823 7.5 9.8125 C6.30890625 9.72935547 6.30890625 9.72935547 5.09375 9.64453125 C3 9 3 9 1.71875 6.94921875 C1.4815625 6.30597656 1.244375 5.66273437 1 5 C0.34 5 -0.32 5 -1 5 C-0.67 3.35 -0.34 1.7 0 0 Z " fill="#3ECAC6" transform="translate(78,114)"/>
<path d="M0 0 C1.28970703 0.22236328 1.28970703 0.22236328 2.60546875 0.44921875 C4.8125 1.3125 4.8125 1.3125 6.11328125 3.39453125 C6.34402344 4.02746094 6.57476562 4.66039063 6.8125 5.3125 C6.17183594 5.10753906 5.53117188 4.90257813 4.87109375 4.69140625 C-0.16037851 3.12422636 -4.94738003 1.88207826 -10.1875 1.3125 C-10.1875 0.9825 -10.1875 0.6525 -10.1875 0.3125 C-6.51681894 -0.60352274 -3.71515735 -0.70256379 0 0 Z " fill="#737E9D" transform="translate(127.1875,83.6875)"/>
<path d="M0 0 C0.99 0.99 1.98 1.98 3 3 C3.66 2.67 4.32 2.34 5 2 C5.4125 2.763125 5.825 3.52625 6.25 4.3125 C7.95875809 6.9366642 9.41017753 8.30321976 12 10 C5.92706524 9.7618457 5.92706524 9.7618457 3.421875 7.703125 C1.12792857 5.04003777 0 3.57389046 0 0 Z " fill="#7EDFDE" transform="translate(67,122)"/>
<path d="M0 0 C3.3 0.99 6.6 1.98 10 3 C10 3.66 10 4.32 10 5 C10.66 5 11.32 5 12 5 C12 7.31 12 9.62 12 12 C11.67 12 11.34 12 11 12 C10.731875 11.05125 10.46375 10.1025 10.1875 9.125 C9.25013412 5.74732727 9.25013412 5.74732727 6 4 C2.87478167 3.83300768 2.87478167 3.83300768 0 4 C-0.33 3.01 -0.66 2.02 -1 1 C-0.67 0.67 -0.34 0.34 0 0 Z " fill="#2CC5C0" transform="translate(82,106)"/>
<path d="M0 0 C0.99 0.33 1.98 0.66 3 1 C3 3.97 3 6.94 3 10 C1.68 9.34 0.36 8.68 -1 8 C-1.875 5 -1.875 5 -2 2 C-1.34 1.34 -0.68 0.68 0 0 Z " fill="#23336B" transform="translate(57,139)"/>
<path d="M0 0 C1.4540625 0.0309375 1.4540625 0.0309375 2.9375 0.0625 C2.9375 0.7225 2.9375 1.3825 2.9375 2.0625 C3.9275 2.7225 4.9175 3.3825 5.9375 4.0625 C0.71770872 4.2424928 -3.13512981 4.03344808 -8.0625 2.0625 C-7.423125 1.918125 -6.78375 1.77375 -6.125 1.625 C-0.18014706 0.00367647 -0.18014706 0.00367647 0 0 Z " fill="#5E6897" transform="translate(74.0625,151.9375)"/>
<path d="M0 0 C0.66 0.66 1.32 1.32 2 2 C0.5625 4 0.5625 4 -2 6 C-5.02824418 6.35442445 -7.96485939 6.23347235 -11 6 C-10.01 5.67 -9.02 5.34 -8 5 C-7.67 4.34 -7.34 3.68 -7 3 C-5.35 3 -3.7 3 -2 3 C-1.67 2.34 -1.34 1.68 -1 1 C-0.67 0.67 -0.34 0.34 0 0 Z " fill="#7A80A4" transform="translate(131,142)"/>
<path d="M0 0 C0.33 0.66 0.66 1.32 1 2 C3.52733235 2.65555119 3.52733235 2.65555119 6 3 C6.33 4.98 6.66 6.96 7 9 C5.82460004 8.07347299 4.65989423 7.13336613 3.5 6.1875 C2.52546875 5.40439453 2.52546875 5.40439453 1.53125 4.60546875 C0 3 0 3 0 0 Z " fill="#828BAA" transform="translate(49,138)"/>
<path d="M0 0 C0.66 0.33 1.32 0.66 2 1 C1.46930939 4.82097239 0.50298434 7.06171403 -2 10 C-2.25 3.375 -2.25 3.375 0 0 Z " fill="#626C96" transform="translate(153,128)"/>
<path d="M0 0 C-0.66 1.32 -1.32 2.64 -2 4 C-3.65 4 -5.3 4 -7 4 C-7.33 3.01 -7.66 2.02 -8 1 C-5.07175348 0.02391783 -3.04386724 -0.08226668 0 0 Z " fill="#23316B" transform="translate(74,78)"/>
<path d="M0 0 C1.98 0.495 1.98 0.495 4 1 C4 1.66 4 2.32 4 3 C3.01 3.33 2.02 3.66 1 4 C0.67 7.3 0.34 10.6 0 14 C-0.33 14 -0.66 14 -1 14 C-1.02705729 12.22925083 -1.04642195 10.45838289 -1.0625 8.6875 C-1.07410156 7.70136719 -1.08570313 6.71523438 -1.09765625 5.69921875 C-1 3 -1 3 0 0 Z " fill="#26335F" transform="translate(150,35)"/>
<path d="M0 0 C1.32 0 2.64 0 4 0 C4.33 0.99 4.66 1.98 5 3 C3.625 4.5 3.625 4.5 2 6 C1.34 6 0.68 6 0 6 C0 4.02 0 2.04 0 0 Z " fill="#7582A2" transform="translate(146,138)"/>
<path d="M0 0 C0.66 0.33 1.32 0.66 2 1 C1.62403791 3.78211944 1.32681541 5.5879284 -0.4375 7.8125 C-2 9 -2 9 -4 9 C-2.94124926 5.59687262 -1.99097846 2.98646769 0 0 Z " fill="#69749C" transform="translate(51,89)"/>
<path d="M0 0 C2.475 0.495 2.475 0.495 5 1 C4.34 2.32 3.68 3.64 3 5 C2.34 5 1.68 5 1 5 C0.67 5.99 0.34 6.98 0 8 C0 5.36 0 2.72 0 0 Z " fill="#6F7A9E" transform="translate(55,96)"/>
<path d="M0 0 C0.99 0.33 1.98 0.66 3 1 C2.67 1.99 2.34 2.98 2 4 C1.01 4.33 0.02 4.66 -1 5 C-1.66 5.66 -2.32 6.32 -3 7 C-2.25 2.25 -2.25 2.25 0 0 Z " fill="#233064" transform="translate(60,82)"/>
<path d="M0 0 C0.66 0 1.32 0 2 0 C3.09658936 3.28976808 2.79953138 4.71303767 2 8 C0.68 6.68 -0.64 5.36 -2 4 C-1.34 2.68 -0.68 1.36 0 0 Z " fill="#203066" transform="translate(133,81)"/>
<path d="M0 0 C2.31 0 4.62 0 7 0 C7 0.99 7 1.98 7 3 C4.69 2.67 2.38 2.34 0 2 C0 1.34 0 0.68 0 0 Z " fill="#2BC5C1" transform="translate(112,107)"/>
<path d="M0 0 C0.33 1.32 0.66 2.64 1 4 C-2.4352048 6.29013653 -3.985331 6.17842973 -8 6 C-7.4225 5.7525 -6.845 5.505 -6.25 5.25 C-3.6997003 3.83316683 -1.98214299 2.12372463 0 0 Z " fill="#32C5BF" transform="translate(92,118)"/>
<path d="M0 0 C1.37432457 3.81756824 0.67975039 7.07255329 0 11 C-0.33 11 -0.66 11 -1 11 C-1.33 7.7 -1.66 4.4 -2 1 C-1.34 0.67 -0.68 0.34 0 0 Z " fill="#94A1BC" transform="translate(54,104)"/>
<path d="M0 0 C0.99 0.33 1.98 0.66 3 1 C2.67 2.32 2.34 3.64 2 5 C0.68 5 -0.64 5 -2 5 C-1.34 3.35 -0.68 1.7 0 0 Z " fill="#1E316D" transform="translate(64,84)"/>
<path d="" fill="#FFFFFF" transform="translate(0,0)"/>
<path d="" fill="#FFFFFF" transform="translate(0,0)"/>
</svg>
