<?xml version="1.0" encoding="UTF-8"?>
<svg version="1.1" xmlns="http://www.w3.org/2000/svg" width="225" height="225">
<path d="M0 0 C9.46445235 8.50664328 15.57490156 21.70694899 16.92578125 34.3046875 C17.13013444 49.95814152 11.96246153 62.58263857 1.33984375 73.984375 C-11.19869306 85.86410734 -25.59141159 87.65251617 -42.09765625 87.359375 C-43.58917908 87.34428945 -45.0807168 87.33060794 -46.57226562 87.31835938 C-50.18557585 87.28826518 -53.79676742 87.2295014 -57.41015625 87.171875 C-57.41015625 81.891875 -57.41015625 76.611875 -57.41015625 71.171875 C-54.11917969 71.02492187 -54.11917969 71.02492187 -50.76171875 70.875 C-48.60343462 70.76653646 -46.4455428 70.65209925 -44.28759766 70.53710938 C-42.8041793 70.46121804 -41.32043579 70.39140058 -39.83642578 70.328125 C-29.24603338 69.87108851 -18.24777831 69.23342911 -10.41015625 61.171875 C-3.67236176 51.99113748 -2.4842693 43.45831975 -3.41015625 32.171875 C-5.02188996 24.96250327 -8.77379724 18.94788958 -14.41015625 14.171875 C-22.28102064 9.51415937 -30.63432583 8.09201411 -39.640625 9.52734375 C-47.2956983 11.54611529 -53.76665698 16.87271039 -57.89453125 23.5859375 C-61.12663988 30.58883953 -61.58398497 37.2542152 -61.7355957 44.86474609 C-61.77006805 46.321996 -61.77006805 46.321996 -61.80523682 47.8086853 C-61.85493694 49.91642745 -61.90286004 52.02421208 -61.94921303 54.13203049 C-62.0242239 57.48041652 -62.10694002 60.82852595 -62.19218445 64.17666626 C-62.43444804 73.69611964 -62.67319931 83.21557649 -62.8815918 92.73583984 C-63.00974664 98.56463773 -63.15576179 104.39276258 -63.31303978 110.22084427 C-63.36936403 112.42999322 -63.41923294 114.63931749 -63.46221352 116.84876633 C-63.88183079 138.16217368 -66.44503916 155.59946874 -81.77734375 171.6640625 C-94.13968498 183.43946765 -107.93975835 187.72912488 -124.69140625 187.4453125 C-138.22170688 186.8933899 -150.5516366 181.07777017 -159.7890625 171.17578125 C-165.41656245 164.21937769 -169.625263 156.66649914 -172.41015625 148.171875 C-172.63574219 147.50285156 -172.86132812 146.83382812 -173.09375 146.14453125 C-177.27013151 131.13836044 -174.28775843 115.59828581 -167.203125 102.09375 C-158.61974701 88.1060229 -146.28169635 80.05273407 -130.546875 76.234375 C-115.63803173 73.07787478 -100.58126835 73.01547178 -85.41015625 73.171875 C-85.41015625 77.791875 -85.41015625 82.411875 -85.41015625 87.171875 C-86.54332275 87.15616455 -87.67648926 87.1404541 -88.84399414 87.12426758 C-93.12126314 87.06922198 -97.39850214 87.03525876 -101.67602539 87.00708008 C-103.51364437 86.99216095 -105.35122882 86.97181832 -107.1887207 86.94555664 C-125.07485921 86.69666358 -142.74405419 87.28582561 -156.59375 100.15625 C-164.63857041 109.08340555 -168.82198404 120.60562173 -168.62109375 132.55859375 C-167.6984954 143.98856223 -163.66685727 155.91517398 -155.41015625 164.171875 C-143.03281023 173.5225539 -131.83928455 176.51084168 -116.41015625 175.171875 C-112.43428096 174.32439854 -109.03193705 172.99984927 -105.41015625 171.171875 C-104.5490625 170.74777344 -103.68796875 170.32367188 -102.80078125 169.88671875 C-91.32193501 163.64292209 -85.4649542 154.33626885 -81.41015625 142.171875 C-81.31783771 140.65298113 -81.28120574 139.13036813 -81.27885437 137.6086731 C-81.27484619 136.67253677 -81.27083801 135.73640045 -81.26670837 134.77189636 C-81.26723709 133.74647232 -81.26776581 132.72104828 -81.26831055 131.66455078 C-81.26309891 130.04198616 -81.26309891 130.04198616 -81.25778198 128.38664246 C-81.2504211 126.03273153 -81.24507749 123.67881365 -81.24149132 121.32489395 C-81.2343245 117.59087768 -81.21865344 113.85699272 -81.20014954 110.12301636 C-81.14770946 99.50422028 -81.099331 88.88551919 -81.08422852 78.26660156 C-81.074106 71.77259226 -81.04466681 65.27891004 -81.00290871 58.78503036 C-80.9906482 56.31731524 -80.98546833 53.8495538 -80.98770714 51.38180923 C-81.00029676 32.96492653 -80.37773116 17.74145524 -67.671875 3.1796875 C-48.9598107 -14.85120958 -20.32000388 -15.41290408 0 0 Z " fill="#F75E0A" transform="translate(192.41015625,24.828125)"/>
<path d="M0 0 C0 4.62 0 9.24 0 14 C-4.62 14 -9.24 14 -14 14 C-14 13.34 -14 12.68 -14 12 C-11.36 12 -8.72 12 -6 12 C-5.67 11.34 -5.34 10.68 -5 10 C-4.34 9.34 -3.68 8.68 -3 8 C-2.60235737 6.01178687 -2.26224651 4.01055661 -2 2 C-2.98057373 2.04543945 -2.98057373 2.04543945 -3.98095703 2.09179688 C-28.00380161 3.19008061 -28.00380161 3.19008061 -40 3 C-40 2.67 -40 2.34 -40 2 C-26.62105281 0.58336127 -13.45503311 -0.29900074 0 0 Z " fill="#E25E1D" transform="translate(107,98)"/>
<path d="M0 0 C0.66 0 1.32 0 2 0 C3.63618952 17.46946965 3.63618952 17.46946965 2 24 C1.34 24.33 0.68 24.66 0 25 C0 23.02 0 21.04 0 19 C-0.66 19 -1.32 19 -2 19 C-2 13.06 -2 7.12 -2 1 C-1.34 1 -0.68 1 0 1 C0 0.67 0 0.34 0 0 Z " fill="#FB5B07" transform="translate(21,147)"/>
<path d="M0 0 C0.33 0 0.66 0 1 0 C2.33333333 5.33333333 3.66666667 10.66666667 5 16 C4.34 16 3.68 16 3 16 C2.67 15.34 2.34 14.68 2 14 C0.90341064 17.28976808 1.20046862 18.71303767 2 22 C-0.40967639 19.09083887 -1.65397951 16.56302424 -2.6875 12.9375 C-2.93886719 12.08027344 -3.19023437 11.22304687 -3.44921875 10.33984375 C-4 8 -4 8 -4 5 C-3.34 5 -2.68 5 -2 5 C-1.67 6.65 -1.34 8.3 -1 10 C-0.67 6.7 -0.34 3.4 0 0 Z " fill="#E15F19" transform="translate(23,161)"/>
<path d="M0 0 C0.66 0.33 1.32 0.66 2 1 C0.71937515 2.7074998 -0.61767557 4.37373596 -2 6 C-2.66 6 -3.32 6 -4 6 C-4 6.66 -4 7.32 -4 8 C-4.5775 8.020625 -5.155 8.04125 -5.75 8.0625 C-9.35272329 9.56363471 -10.18606819 12.61399396 -12 16 C-12.66 16.33 -13.32 16.66 -14 17 C-14.33 17.99 -14.66 18.98 -15 20 C-15.66 20 -16.32 20 -17 20 C-13.80855085 11.18478366 -7.70196252 5.10129985 0 0 Z " fill="#E85513" transform="translate(134,21)"/>
<path d="M0 0 C1.32 0 2.64 0 4 0 C4 0.99 4 1.98 4 3 C4.99 3.33 5.98 3.66 7 4 C7.33 4.99 7.66 5.98 8 7 C6.35 7.66 4.7 8.32 3 9 C0.11749016 6.61879622 -0.61038985 4.70129644 -1 1 C-0.67 0.67 -0.34 0.34 0 0 Z " fill="#F95D08" transform="translate(37,192)"/>
<path d="M0 0 C1.60367894 4.00919734 0.31933425 7.04199726 -1 11 C-1.33 11.66 -1.66 12.32 -2 13 C-1.34 13.33 -0.68 13.66 0 14 C-2.39509338 16.89932357 -4.31245243 17.50168276 -8 18 C-7.72285156 17.45472656 -7.44570312 16.90945312 -7.16015625 16.34765625 C-5.86790276 13.73269212 -4.64721343 11.09164737 -3.4375 8.4375 C-3.00308594 7.48746094 -2.56867188 6.53742188 -2.12109375 5.55859375 C-0.93570603 2.95894129 -0.93570603 2.95894129 0 0 Z " fill="#E25E16" transform="translate(111,167)"/>
<path d="M0 0 C0.99 0 1.98 0 3 0 C3 1.98 3 3.96 3 6 C-1.62 6 -6.24 6 -11 6 C-11 5.34 -11 4.68 -11 4 C-8.36 4 -5.72 4 -3 4 C-2.67 3.34 -2.34 2.68 -2 2 C-1.34 1.34 -0.68 0.68 0 0 Z " fill="#EE5B12" transform="translate(104,106)"/>
<path d="M0 0 C0.60546875 1.8125 0.60546875 1.8125 1 4 C-1.1666971 7.85190595 -3.65628216 11.10211121 -7 14 C-7.66 14 -8.32 14 -9 14 C-9 14.66 -9 15.32 -9 16 C-9.99 16 -10.98 16 -12 16 C-12.33 16.66 -12.66 17.32 -13 18 C-13.66 17.34 -14.32 16.68 -15 16 C-14.41992188 15.68289062 -13.83984375 15.36578125 -13.2421875 15.0390625 C-6.68138065 11.11990065 -3.4157908 6.77800056 0 0 Z " fill="#E05D19" transform="translate(188,76)"/>
<path d="M0 0 C2.50740841 2.10830534 3.87271731 3.28092125 4.45410156 6.56542969 C4.4331543 7.50805664 4.41220703 8.45068359 4.390625 9.421875 C4.37773437 10.44667969 4.36484375 11.47148438 4.3515625 12.52734375 C4.31804687 13.59082031 4.28453125 14.65429688 4.25 15.75 C4.23195312 16.82894531 4.21390625 17.90789062 4.1953125 19.01953125 C4.14821415 21.68058788 4.082456 24.33984254 4 27 C3.34 26.67 2.68 26.34 2 26 C2.02320313 24.87722656 2.04640625 23.75445312 2.0703125 22.59765625 C2.18212174 14.77013576 2.20646789 7.58473338 0 0 Z " fill="#E05D1B" transform="translate(187,48)"/>
<path d="M0 0 C2.64 0 5.28 0 8 0 C8 1.32 8 2.64 8 4 C10.97 4.495 10.97 4.495 14 5 C13.67 5.99 13.34 6.98 13 8 C7.73691968 6.58795406 4.2437012 4.31008693 0 1 C0 0.67 0 0.34 0 0 Z " fill="#E05E17" transform="translate(38,200)"/>
<path d="M0 0 C3.26954202 0.56371414 4.82575883 1.49962266 7 4 C5.68 5.32 4.36 6.64 3 8 C3 6.68 3 5.36 3 4 C2.01 3.67 1.02 3.34 0 3 C0 2.01 0 1.02 0 0 Z " fill="#F95E09" transform="translate(28,184)"/>
<path d="M0 0 C0.66 0.33 1.32 0.66 2 1 C2 1.66 2 2.32 2 3 C2.66 3 3.32 3 4 3 C4.33 4.32 4.66 5.64 5 7 C3.68 7.33 2.36 7.66 1 8 C0.26919734 6.02253397 -0.39421747 4.01927511 -1 2 C-0.67 1.34 -0.34 0.68 0 0 Z " fill="#F85D06" transform="translate(24,174)"/>
<path d="M0 0 C2.475 0.99 2.475 0.99 5 2 C5 3.32 5 4.64 5 6 C3.0625 6.5625 3.0625 6.5625 1 7 C0 6 0 6 -0.0625 2.9375 C-0.041875 1.968125 -0.02125 0.99875 0 0 Z " fill="#F65D07" transform="translate(36,115)"/>
<path d="M0 0 C2.64 0.33 5.28 0.66 8 1 C8.33 2.98 8.66 4.96 9 7 C7.4972763 6.02501855 5.99788037 5.04490611 4.5 4.0625 C3.6646875 3.51722656 2.829375 2.97195312 1.96875 2.41015625 C1.3190625 1.94480469 0.669375 1.47945312 0 1 C0 0.67 0 0.34 0 0 Z " fill="#DF5D1D" transform="translate(174,36)"/>
<path d="M0 0 C0.99 0.33 1.98 0.66 3 1 C1.02 2.98 -0.96 4.96 -3 7 C-3.99 6.67 -4.98 6.34 -6 6 C-5.01 5.67 -4.02 5.34 -3 5 C-3 4.01 -3 3.02 -3 2 C-2.01 2 -1.02 2 0 2 C0 1.34 0 0.68 0 0 Z " fill="#E15F1F" transform="translate(111,192)"/>
<path d="M0 0 C0.99 0.33 1.98 0.66 3 1 C3 1.99 3 2.98 3 4 C2.01 4.495 2.01 4.495 1 5 C0.34786708 7.02463255 0.34786708 7.02463255 0 9 C0 8.01 0 7.02 0 6 C-0.66 5.67 -1.32 5.34 -2 5 C-1.34 3.35 -0.68 1.7 0 0 Z " fill="#F85C08" transform="translate(32,118)"/>
<path d="M0 0 C1.32 0.33 2.64 0.66 4 1 C-1.75 5 -1.75 5 -4 5 C-4 4.01 -4 3.02 -4 2 C-2.68 2 -1.36 2 0 2 C0 1.34 0 0.68 0 0 Z " fill="#E15B20" transform="translate(100,201)"/>
<path d="M0 0 C0.33 0.99 0.66 1.98 1 3 C0.01 4.485 0.01 4.485 -1 6 C-1.99 5.67 -2.98 5.34 -4 5 C-2.25 1.125 -2.25 1.125 0 0 Z " fill="#EA5C10" transform="translate(97,190)"/>
<path d="M0 0 C0.66 0 1.32 0 2 0 C1.50168276 3.68754757 0.89932357 5.60490662 -2 8 C-2 6.35 -2 4.7 -2 3 C-1.34 3 -0.68 3 0 3 C0 2.01 0 1.02 0 0 Z " fill="#DA641D" transform="translate(203,80)"/>
<path d="M0 0 C0.66 0.33 1.32 0.66 2 1 C1 4 1 4 -1 5 C-1.33 5.99 -1.66 6.98 -2 8 C-2.66 8 -3.32 8 -4 8 C-2.87548273 5.0280615 -1.77706209 2.66559313 0 0 Z " fill="#DF5C1D" transform="translate(121,33)"/>
<path d="M0 0 C0.66 0.33 1.32 0.66 2 1 C0.515 3.475 0.515 3.475 -1 6 C-3.475 5.01 -3.475 5.01 -6 4 C-4.03617993 2.49440461 -2.21736634 1.10868317 0 0 Z " fill="#E45A17" transform="translate(142,17)"/>
</svg>
