<?xml version="1.0" encoding="UTF-8"?>
<svg version="1.1" xmlns="http://www.w3.org/2000/svg" width="400" height="275">
<path d="M0 0 C0.82693359 0.00451172 1.65386719 0.00902344 2.50585938 0.01367188 C4.52477146 0.02534189 6.54364574 0.04327282 8.5625 0.0625 C7.758125 0.990625 6.95375 1.91875 6.125 2.875 C2.59542604 6.98168439 -0.79929094 11.19356966 -4.19140625 15.4140625 C-9.86551815 22.10458053 -13.34925912 24.02116382 -21.9375 25 C-28.49027805 25.77817959 -34.96302055 26.77309096 -41.4375 28.0625 C-41.38927949 43.27607081 -36.6065347 56.25945086 -28.89038086 69.24194336 C-26.43220179 73.48605508 -26.43220179 73.48605508 -26.45703125 76.1875 C-27.8086535 78.77227562 -29.55396695 80.63593386 -31.5625 82.75 C-35.81146723 87.32528791 -39.68899927 92.07253439 -43.4375 97.0625 C-45.2578125 96.87744141 -45.2578125 96.87744141 -47.4375 96.0625 C-48.9296875 93.89208984 -48.9296875 93.89208984 -50.3125 91.0234375 C-51.07578613 89.45106323 -51.07578613 89.45106323 -51.85449219 87.84692383 C-52.63808105 86.15925903 -52.63808105 86.15925903 -53.4375 84.4375 C-53.9727832 83.29627686 -54.50806641 82.15505371 -55.05957031 80.97924805 C-61.42327594 67.1168646 -67.18480576 51.84184595 -61.875 36.625 C-59.69899109 31.9322548 -56.65589503 28.08753327 -52.4375 25.0625 C-51.72207031 24.88976562 -51.00664063 24.71703125 -50.26953125 24.5390625 C-49.66496094 24.38179687 -49.06039062 24.22453125 -48.4375 24.0625 C-48.169375 23.216875 -47.90125 22.37125 -47.625 21.5 C-45.3256159 14.84388814 -39.99042364 9.6601818 -33.94140625 6.15625 C-23.2108904 1.46897319 -11.60989887 -0.1216186 0 0 Z M-10.4375 8.0625 C-24.41869844 10.71510164 -24.41869844 10.71510164 -36.4375 18.0625 C-32.90599345 19.82825327 -28.99323779 18.54895919 -25.1875 18 C-24.34058594 17.90267578 -23.49367188 17.80535156 -22.62109375 17.70507812 C-16.30083025 16.78603514 -13.51785779 14.97626421 -9.4375 10.0625 C-9.7675 9.4025 -10.0975 8.7425 -10.4375 8.0625 Z M-50.4375 34.0625 C-54.58575119 38.4783803 -56.28859285 42.50527357 -56.54296875 48.58203125 C-56.07155123 61.34522397 -50.56841797 74.02142206 -44.4375 85.0625 C-43.695 84.32 -42.9525 83.5775 -42.1875 82.8125 C-39.9375 80.5625 -37.6875 78.3125 -35.4375 76.0625 C-36.67524305 72.09191834 -38.16758331 68.33637166 -39.89990234 64.55615234 C-44.41285805 54.69719133 -47.78816574 44.83168251 -49.4375 34.0625 C-49.7675 34.0625 -50.0975 34.0625 -50.4375 34.0625 Z " fill="#FDFDFD" transform="translate(128.4375,88.9375)"/>
<path d="M0 0 C1.76923828 0.01353516 1.76923828 0.01353516 3.57421875 0.02734375 C4.47785156 0.03894531 5.38148438 0.05054688 6.3125 0.0625 C5.9825 1.3825 5.6525 2.7025 5.3125 4.0625 C4.6525 4.0625 3.9925 4.0625 3.3125 4.0625 C3.56 5.135 3.8075 6.2075 4.0625 7.3125 C4.3125 11.0625 4.3125 11.0625 2.875 13.4375 C-0.68437124 15.69466225 -3.49801974 15.78320132 -7.6875 16.0625 C-6.91664063 16.18367188 -6.14578125 16.30484375 -5.3515625 16.4296875 C-4.34867188 16.59726563 -3.34578125 16.76484375 -2.3125 16.9375 C-1.31476563 17.09992188 -0.31703125 17.26234375 0.7109375 17.4296875 C3.3125 18.0625 3.3125 18.0625 5.3125 20.0625 C5.4375 23.1875 5.4375 23.1875 5.3125 26.0625 C0.74547859 28.73587839 -2.40786214 29.53389624 -7.6875 29.0625 C-11.125 28.0625 -11.125 28.0625 -13.6875 27.0625 C-14.8125 21.4375 -14.8125 21.4375 -13.6875 18.0625 C-13.28985737 16.07428687 -12.94974651 14.07305661 -12.6875 12.0625 C-13.0175 11.7325 -13.3475 11.4025 -13.6875 11.0625 C-14.09430103 7.40129072 -14.1876525 5.7006256 -11.875 2.75 C-8.01008933 -0.23150252 -4.72881756 -0.04681998 0 0 Z M-6.6875 5.0625 C-7.0175 6.7125 -7.3475 8.3625 -7.6875 10.0625 C-5.2125 10.5575 -5.2125 10.5575 -2.6875 11.0625 C-2.3575 9.4125 -2.0275 7.7625 -1.6875 6.0625 C-3.3375 5.7325 -4.9875 5.4025 -6.6875 5.0625 Z M-8.6875 22.0625 C-8.6875 22.7225 -8.6875 23.3825 -8.6875 24.0625 C-6.0475 24.0625 -3.4075 24.0625 -0.6875 24.0625 C-0.6875 23.4025 -0.6875 22.7425 -0.6875 22.0625 C-3.3275 22.0625 -5.9675 22.0625 -8.6875 22.0625 Z " fill="#FDFDFD" transform="translate(189.6875,143.9375)"/>
<path d="M0 0 C1.07765625 0.00902344 2.1553125 0.01804688 3.265625 0.02734375 C4.08546875 0.03894531 4.9053125 0.05054688 5.75 0.0625 C5.41871094 0.81273437 5.08742188 1.56296875 4.74609375 2.3359375 C3.53431084 5.14633606 3.53431084 5.14633606 3.8125 8.6875 C3.75 12.0625 3.75 12.0625 2.5390625 13.73046875 C0.31301627 15.38785251 -1.18822 15.55077681 -3.9375 15.75 C-5.14986328 15.84861328 -5.14986328 15.84861328 -6.38671875 15.94921875 C-7.00160156 15.98660156 -7.61648438 16.02398437 -8.25 16.0625 C-7.11111328 16.22685547 -7.11111328 16.22685547 -5.94921875 16.39453125 C-4.95535156 16.55308594 -3.96148437 16.71164063 -2.9375 16.875 C-1.95136719 17.02582031 -0.96523438 17.17664063 0.05078125 17.33203125 C2.89915839 18.10286559 4.03251638 18.69657868 5.75 21.0625 C5.8125 23.5625 5.8125 23.5625 4.75 26.0625 C0.42937263 29.04579033 -3.0766283 29.53280652 -8.25 29.0625 C-12.7016129 27.6108871 -12.7016129 27.6108871 -14.25 26.0625 C-14.29384447 24.39641013 -14.2896713 22.72869446 -14.25 21.0625 C-14.25 20.0725 -14.25 19.0825 -14.25 18.0625 C-14.085 17.175625 -13.92 16.28875 -13.75 15.375 C-13.34467839 12.68974435 -13.26682147 10.54995993 -13.375 7.875 C-13.25 4.0625 -13.25 4.0625 -12 2.125 C-8.1910783 -0.1875596 -4.36661994 -0.04746326 0 0 Z M-7.25 5.0625 C-7.63218767 6.71864657 -7.96395102 8.38707024 -8.25 10.0625 C-7.18354885 11.35883621 -7.18354885 11.35883621 -4.6875 11.125 C-3.883125 11.104375 -3.07875 11.08375 -2.25 11.0625 C-1.86781233 9.40635343 -1.53604898 7.73792976 -1.25 6.0625 C-2.31645115 4.76616379 -2.31645115 4.76616379 -4.8125 5 C-5.616875 5.020625 -6.42125 5.04125 -7.25 5.0625 Z M-8.25 21.0625 C-8.25 22.0525 -8.25 23.0425 -8.25 24.0625 C-5.61 24.0625 -2.97 24.0625 -0.25 24.0625 C-0.25 23.4025 -0.25 22.7425 -0.25 22.0625 C-2.89 21.7325 -5.53 21.4025 -8.25 21.0625 Z " fill="#FDFDFD" transform="translate(318.25,143.9375)"/>
<path d="M0 0 C1.98 0 3.96 0 6 0 C6.99 2.97 7.98 5.94 9 9 C10.32 6.36 11.64 3.72 13 1 C14.65 1 16.3 1 18 1 C19.32 3.64 20.64 6.28 22 9 C22.99 6.03 23.98 3.06 25 0 C26.98 0 28.96 0 31 0 C29.02 6.27 27.04 12.54 25 19 C23.02 19 21.04 19 19 19 C17.68 16.36 16.36 13.72 15 11 C14.01 13.64 13.02 16.28 12 19 C10.02 19 8.04 19 6 19 C3.07617577 12.87389209 1.52785824 6.59904729 0 0 Z " fill="#FCFCFC" transform="translate(169,117)"/>
<path d="M0 0 C0.66 -0.02578125 1.32 -0.0515625 2 -0.078125 C4.90827625 0.39901407 6.02441061 1.0210198 8 3.25 C8.64011663 6.13588466 8.69679372 8.9893886 8.75 11.9375 C8.77964844 12.73478516 8.80929688 13.53207031 8.83984375 14.35351562 C8.91044082 16.31846749 8.95749708 18.28423977 9 20.25 C7.36417969 20.22873047 7.36417969 20.22873047 5.6953125 20.20703125 C2.06828922 20.12386143 2.06828922 20.12386143 -1.125 20.9375 C-4 21.25 -4 21.25 -6.875 20.1875 C-9 18.25 -9 18.25 -9.5625 15.3125 C-9 12.25 -9 12.25 -7.5 9.875 C-3.86748926 7.51386802 -1.28156703 7.9645622 3 8.25 C2.67 7.59 2.34 6.93 2 6.25 C-0.97 6.25 -3.94 6.25 -7 6.25 C-7.33 4.6 -7.66 2.95 -8 1.25 C-5.34286645 0.36428882 -2.78089761 0.10376484 0 0 Z M-2 12.25 C-2.33 13.57 -2.66 14.89 -3 16.25 C-1.35 16.25 0.3 16.25 2 16.25 C2.33 14.93 2.66 13.61 3 12.25 C1.35 12.25 -0.3 12.25 -2 12.25 Z " fill="#FDFDFD" transform="translate(160,115.75)"/>
<path d="M0 0 C2.84997063 2.37497553 3.21826875 4.71512457 3.6875 8.25 C3.790625 9.4875 3.89375 10.725 4 12 C-1.94 12.495 -1.94 12.495 -8 13 C-8 13.66 -8 14.32 -8 15 C-4.7 14.67 -1.4 14.34 2 14 C2.33 15.65 2.66 17.3 3 19 C-1.07061964 20.35687321 -4.74812737 20.64897003 -9 20 C-12.71020082 17.44923694 -13.77422053 15.84291002 -14.9375 11.5 C-15.01517074 7.15043876 -14.31953025 4.60638466 -11.5625 1.25 C-7.82516108 -1.73987114 -4.40335637 -1.02220773 0 0 Z M-7 4 C-7.66 5.32 -8.32 6.64 -9 8 C-6.69 8 -4.38 8 -2 8 C-2.33 6.68 -2.66 5.36 -3 4 C-4.32 4 -5.64 4 -7 4 Z " fill="#FDFDFD" transform="translate(238,145)"/>
<path d="M0 0 C2.57636902 1.74078988 3.76833415 2.98183832 4.46484375 6.04296875 C4.72030996 8.02020719 4.8673828 10.01074197 5 12 C-0.94 12.495 -0.94 12.495 -7 13 C-7 13.66 -7 14.32 -7 15 C-2.545 14.505 -2.545 14.505 2 14 C2.66 15.65 3.32 17.3 4 19 C-0.07391962 20.35797321 -3.74465968 20.6420338 -8 20 C-10.99540063 18.00306625 -12.49113042 16.54887179 -13.625 13.09765625 C-14.29957494 9.43668184 -14.06711625 7.20134874 -12.875 3.625 C-9.38149534 -1.26590653 -5.60633721 -1.66997279 0 0 Z M-6 4 C-6.66 5.32 -7.32 6.64 -8 8 C-5.69 8 -3.38 8 -1 8 C-1.33 6.68 -1.66 5.36 -2 4 C-3.32 4 -4.64 4 -6 4 Z " fill="#FCFCFC" transform="translate(150,145)"/>
<path d="M0 0 C1.99301736 1.58066894 2.86543351 2.73086702 4 5 C4.04022391 7.3329866 4.04320247 9.66706666 4 12 C0.04 12 -3.92 12 -8 12 C-7.01 13.485 -7.01 13.485 -6 15 C-3.36 14.67 -0.72 14.34 2 14 C2.33 15.65 2.66 17.3 3 19 C-0.71014101 20.23671367 -4.14438758 20.56368603 -8 20 C-10.8100346 18.20636089 -12.50940468 16.98119065 -14 14 C-14.34411038 8.75231669 -14.5679453 5.18310828 -11 1 C-7.11979352 -1.3071498 -4.29788294 -1.21461909 0 0 Z M-7 4 C-7.33 5.32 -7.66 6.64 -8 8 C-5.69 8 -3.38 8 -1 8 C-1.66 6.68 -2.32 5.36 -3 4 C-4.32 4 -5.64 4 -7 4 Z " fill="#FDFDFD" transform="translate(257,145)"/>
<path d="M0 0 C2 2 2 2 2.22705078 3.87939453 C2.21657715 4.62302246 2.20610352 5.36665039 2.1953125 6.1328125 C2.18886719 6.93847656 2.18242187 7.74414062 2.17578125 8.57421875 C2.15902344 9.41597656 2.14226562 10.25773438 2.125 11.125 C2.11597656 11.97449219 2.10695313 12.82398438 2.09765625 13.69921875 C2.07405647 15.79959884 2.03818483 17.89983444 2 20 C0.35 20 -1.3 20 -3 20 C-3.33 15.05 -3.66 10.1 -4 5 C-5.32 5.33 -6.64 5.66 -8 6 C-8.33 10.62 -8.66 15.24 -9 20 C-10.65 20 -12.3 20 -14 20 C-15 19 -15 19 -15.11352539 17.14233398 C-15.10828857 16.35157471 -15.10305176 15.56081543 -15.09765625 14.74609375 C-15.09443359 13.89208984 -15.09121094 13.03808594 -15.08789062 12.15820312 C-15.07951172 11.26037109 -15.07113281 10.36253906 -15.0625 9.4375 C-15.05798828 8.53580078 -15.05347656 7.63410156 -15.04882812 6.70507812 C-15.03700225 4.46998686 -15.0205222 2.23502563 -15 0 C-12.66666667 0 -10.33333333 0 -8 0 C-5.09288879 -1.4535556 -3.10402897 -0.71133997 0 0 Z " fill="#FDFDFD" transform="translate(300,145)"/>
<path d="M0 0 C2.81488695 2.57267575 3.002109 4.02800758 3.29296875 7.890625 C3.27314945 9.34404009 3.23754845 10.79731167 3.1875 12.25 C3.16719727 13.36761719 3.16719727 13.36761719 3.14648438 14.5078125 C3.11127204 16.33885416 3.05746851 18.16952169 3 20 C1.33388095 20.042721 -0.33382885 20.04063832 -2 20 C-3 19 -3 19 -3.09765625 15.62109375 C-3.09098369 14.22652923 -3.07902532 12.83198257 -3.0625 11.4375 C-3.05798828 10.72658203 -3.05347656 10.01566406 -3.04882812 9.28320312 C-3.03700864 7.52209987 -3.01907263 5.76103964 -3 4 C-4.97536745 4.34786708 -4.97536745 4.34786708 -7 5 C-8.41634833 7.83269666 -8.3463005 10.47466438 -8.5625 13.625 C-8.64628906 14.81351563 -8.73007813 16.00203125 -8.81640625 17.2265625 C-8.87699219 18.14179688 -8.93757812 19.05703125 -9 20 C-10.65 20 -12.3 20 -14 20 C-14.33 13.4 -14.66 6.8 -15 0 C-12.69 0 -10.38 0 -8 0 C-5.03475663 -1.48262169 -3.14877613 -0.83538959 0 0 Z " fill="#FDFDFD" transform="translate(171,145)"/>
<path d="M0 0 C3 1.25 3 1.25 5 4.25 C5.14221065 6.85245498 5.18802932 9.34117684 5.125 11.9375 C5.11597656 12.63939453 5.10695312 13.34128906 5.09765625 14.06445312 C5.07413704 15.79311525 5.03826713 17.52160145 5 19.25 C3.34385343 19.63218767 1.67542976 19.96395102 0 20.25 C-1 19.25 -1 19.25 -1.09765625 15.87109375 C-1.09098369 14.47652923 -1.07902532 13.08198257 -1.0625 11.6875 C-1.05798828 10.97658203 -1.05347656 10.26566406 -1.04882812 9.53320312 C-1.03700864 7.77209987 -1.01907263 6.01103964 -1 4.25 C-2.97536745 4.59786708 -2.97536745 4.59786708 -5 5.25 C-6.41634833 8.08269666 -6.3463005 10.72466438 -6.5625 13.875 C-6.64628906 15.06351563 -6.73007813 16.25203125 -6.81640625 17.4765625 C-6.87699219 18.39179688 -6.93757812 19.30703125 -7 20.25 C-8.65 20.25 -10.3 20.25 -12 20.25 C-12.33 13.65 -12.66 7.05 -13 0.25 C-10.36 0.25 -7.72 0.25 -5 0.25 C-3 -0.75 -3 -0.75 0 0 Z " fill="#FDFDFD" transform="translate(217,144.75)"/>
<path d="M0 0 C-0.6875 2.4375 -0.6875 2.4375 -2 5 C-3.65 5.33 -5.3 5.66 -7 6 C-7.33 10.29 -7.66 14.58 -8 19 C-9.98 19 -11.96 19 -14 19 C-14 12.73 -14 6.46 -14 0 C-11.66666667 0 -9.33333333 0 -7 0 C-4.3333581 -1.33332095 -2.83319697 -0.67102033 0 0 Z " fill="#FDFDFD" transform="translate(277,145)"/>
<path d="M0 0 C-0.33 1.65 -0.66 3.3 -1 5 C-2.65 5 -4.3 5 -6 5 C-7.35091528 7.70183055 -7.33858058 10.11808206 -7.5625 13.125 C-7.64628906 14.22070312 -7.73007813 15.31640625 -7.81640625 16.4453125 C-7.87699219 17.28835937 -7.93757812 18.13140625 -8 19 C-9.65 19 -11.3 19 -13 19 C-13.33 12.73 -13.66 6.46 -14 0 C-11.69 0 -9.38 0 -7 0 C-4.3333581 -1.33332095 -2.83319697 -0.67102033 0 0 Z " fill="#FDFDFD" transform="translate(150,117)"/>
<path d="M0 0 C1.98 0 3.96 0 6 0 C6.02888514 3.14581423 6.04675923 6.29159469 6.0625 9.4375 C6.07087891 10.33533203 6.07925781 11.23316406 6.08789062 12.15820312 C6.09111328 13.01220703 6.09433594 13.86621094 6.09765625 14.74609375 C6.10289307 15.53685303 6.10812988 16.3276123 6.11352539 17.14233398 C6 19 6 19 5 20 C3.35 20 1.7 20 0 20 C0 13.4 0 6.8 0 0 Z " fill="#FDFDFD" transform="translate(197,145)"/>
<path d="M0 0 C1.65 0 3.3 0 5 0 C5 6.6 5 13.2 5 20 C3.35 20 1.7 20 0 20 C0 13.4 0 6.8 0 0 Z " fill="#FDFDFD" transform="translate(278,145)"/>
<path d="M0 0 C1.67542976 0.28604898 3.34385343 0.61781233 5 1 C6.125 5.75 6.125 5.75 5 8 C2.625 8.125 2.625 8.125 0 8 C-0.66 7.34 -1.32 6.68 -2 6 C-1.44444444 1.44444444 -1.44444444 1.44444444 0 0 Z " fill="#FBFBFB" transform="translate(329,144)"/>
<path d="M0 0 C1.98 0 3.96 0 6 0 C6 1.65 6 3.3 6 5 C4.02 5 2.04 5 0 5 C0 3.35 0 1.7 0 0 Z " fill="#FCFCFC" transform="translate(197,137)"/>
<path d="M0 0 C1.65 0 3.3 0 5 0 C5.33 1.65 5.66 3.3 6 5 C4.02 5 2.04 5 0 5 C0 3.35 0 1.7 0 0 Z " fill="#FCFCFC" transform="translate(278,137)"/>
<path d="" fill="#FFFFFF" transform="translate(0,0)"/>
<path d="" fill="#FFFFFF" transform="translate(0,0)"/>
<path d="" fill="#FFFFFF" transform="translate(0,0)"/>
<path d="" fill="#FFFFFF" transform="translate(0,0)"/>
</svg>
