<?xml version="1.0" encoding="UTF-8"?>
<svg version="1.1" xmlns="http://www.w3.org/2000/svg" width="200" height="200">
<path d="M0 0 C6.97389356 -0.17810915 13.94719672 -0.30033255 20.92285156 -0.38452148 C23.29351722 -0.41963167 25.6640323 -0.46733255 28.03417969 -0.52807617 C31.4502483 -0.61340618 34.86430674 -0.65278437 38.28125 -0.68359375 C39.85984802 -0.73778725 39.85984802 -0.73778725 41.47033691 -0.79307556 C46.88982333 -0.7959397 50.22094116 -0.38816706 54.40307617 3.21508789 C55.62575466 4.45376714 56.82695086 5.71422215 58 7 C59.38022339 8.33973877 59.38022339 8.33973877 60.78833008 9.70654297 C61.60712646 10.54330566 62.42592285 11.38006836 63.26953125 12.2421875 C64.17767578 13.16257812 65.08582031 14.08296875 66.02148438 15.03125 C67.42905495 16.46541568 68.83657337 17.89963705 70.2409668 19.33691406 C71.62109409 20.74715236 73.00771862 22.15102297 74.39453125 23.5546875 C75.61426636 24.79968018 75.61426636 24.79968018 76.85864258 26.06982422 C78.9356586 28.20093259 78.9356586 28.20093259 82 29 C82.25885986 28.41444336 82.51771973 27.82888672 82.78442383 27.22558594 C84.09221724 24.8311604 85.49736101 23.28906671 87.44921875 21.390625 C88.13306641 20.71773437 88.81691406 20.04484375 89.52148438 19.3515625 C90.59366211 18.31128906 90.59366211 18.31128906 91.6875 17.25 C96.54018928 12.51874039 101.20365799 7.74997731 105.56567383 2.55761719 C107.43783576 0.524529 108.48700816 0.02738602 111.25259399 -0.12025452 C112.18969208 -0.11803391 113.12679016 -0.11581329 114.09228516 -0.11352539 C115.68370834 -0.11341209 115.68370834 -0.11341209 117.30728149 -0.11329651 C118.45626923 -0.10813522 119.60525696 -0.10297394 120.7890625 -0.09765625 C121.96262299 -0.0962413 123.13618347 -0.09482635 124.3453064 -0.09336853 C128.10522985 -0.08775689 131.86509445 -0.07520238 135.625 -0.0625 C138.16926998 -0.0574865 140.71354088 -0.05292333 143.2578125 -0.04882812 C149.50522853 -0.03778368 155.75261006 -0.02103418 162 0 C162 4 162 4 160.3203125 6.140625 C159.59585938 6.83671875 158.87140625 7.5328125 158.125 8.25 C157.40570313 8.95640625 156.68640625 9.6628125 155.9453125 10.390625 C154 12 154 12 152 12 C152 12.66 152 13.32 152 14 C149.625 16.625 149.625 16.625 147 19 C146.34 19 145.68 19 145 19 C144.60290329 19.88507233 144.60290329 19.88507233 144.19778442 20.7880249 C142.95890455 23.07589188 141.67673262 24.56481646 139.83544922 26.39160156 C138.87467972 27.35214447 138.87467972 27.35214447 137.89450073 28.33209229 C137.20486237 29.01140808 136.515224 29.69072388 135.8046875 30.390625 C135.09724396 31.09523865 134.38980042 31.79985229 133.66091919 32.52581787 C131.40360138 34.7719539 129.13942367 37.01103009 126.875 39.25 C125.34199047 40.77297717 123.80943285 42.29640939 122.27734375 43.8203125 C118.52345427 47.55216815 114.76391086 51.27825351 111 55 C113.81532116 60.83791921 118.03700309 65.36416924 123 69.5 C125.31203844 71.4266987 126.9660444 73.05435177 128.859375 75.3203125 C133.78672867 81.01707944 139.13906662 86.28866233 144.47167969 91.60205078 C146.2635506 93.38850968 148.04994794 95.18031955 149.8359375 96.97265625 C150.97884574 98.11490454 152.12206368 99.25684305 153.265625 100.3984375 C153.79690002 100.93173676 154.32817505 101.46503601 154.87554932 102.01449585 C157.16197131 104.28643744 159.30736475 106.20490983 162 108 C162 109.32 162 110.64 162 112 C154.59883739 112.1780279 147.19823016 112.30030009 139.79541016 112.38452148 C137.27924974 112.4196435 134.76323137 112.46735304 132.24755859 112.52807617 C128.6230154 112.61335111 125.00036606 112.65277338 121.375 112.68359375 C120.25697998 112.71972275 119.13895996 112.75585175 117.98706055 112.79307556 C112.29698576 112.79591239 108.80405081 112.44123852 104.41479492 108.6394043 C103.25205681 107.44970551 102.11148586 106.23771657 101 105 C100.00039658 104.02421842 98.99678156 103.05252107 97.98828125 102.0859375 C96.66376953 100.74402344 96.66376953 100.74402344 95.3125 99.375 C94.42175781 98.47523438 93.53101562 97.57546875 92.61328125 96.6484375 C91.75089844 95.77445312 90.88851562 94.90046875 90 94 C88.59814453 92.65808594 88.59814453 92.65808594 87.16796875 91.2890625 C85 89 85 89 85 87 C84.34 87 83.68 87 83 87 C82.67 86.34 82.34 85.68 82 85 C78.3505569 85.5738309 76.71251405 86.94208725 74.171875 89.5703125 C73.45386719 90.3025 72.73585938 91.0346875 71.99609375 91.7890625 C71.25488281 92.55992187 70.51367188 93.33078125 69.75 94.125 C52.68070462 111.70970928 52.68070462 111.70970928 47.77900696 112.24050903 C46.91518906 112.23606781 46.05137115 112.23162659 45.16137695 112.22705078 C44.1805867 112.22689972 43.19979645 112.22674866 42.18928528 112.22659302 C41.13295395 112.21627045 40.07662262 112.20594788 38.98828125 112.1953125 C37.90491989 112.1924826 36.82155853 112.18965271 35.70536804 112.18673706 C32.24096692 112.17553091 28.77682315 112.15042534 25.3125 112.125 C22.96549852 112.11497077 20.618493 112.10584482 18.27148438 112.09765625 C12.51423493 112.07559016 6.75713585 112.04210827 1 112 C0.67 110.68 0.34 109.36 0 108 C0.45677124 107.61428329 0.91354248 107.22856659 1.38415527 106.8311615 C7.33753409 101.72160323 12.87628891 96.25235201 18.40625 90.69140625 C19.38108645 89.7146999 20.35614749 88.73821766 21.3314209 87.76194763 C23.87186301 85.21772539 26.40928509 82.67051264 28.94604492 80.12261963 C31.54551127 77.51284118 34.14788494 74.90596518 36.75 72.29882812 C41.83614918 67.20202128 46.9191047 62.10204492 52 57 C47.4716633 50.49312179 42.24079257 44.96282703 36.62109375 39.390625 C35.73140396 38.50139343 34.84171417 37.61216187 33.92506409 36.69598389 C31.5781767 34.35286741 29.2267771 32.01440272 26.87341309 29.67779541 C24.957497 27.77271061 23.0471962 25.86204656 21.13699245 23.95123672 C18.84281639 21.65739897 16.54439979 19.36782364 14.24609375 17.078125 C13.39389755 16.22704163 12.54170135 15.37595825 11.66368103 14.49908447 C10.86257401 13.7043573 10.06146698 12.90963013 9.23608398 12.09082031 C8.53692368 11.3954718 7.83776337 10.70012329 7.11741638 9.98370361 C4.97598667 7.89475276 4.97598667 7.89475276 2.23524475 5.99432373 C1.49761398 5.3361969 0.75998322 4.67807007 0 4 C0 2.68 0 1.36 0 0 Z M81 35 C81 49.19 81 63.38 81 78 C84.59204575 76.20397712 86.6637162 74.67433101 89.5625 72 C90.42746094 71.20464844 91.29242188 70.40929687 92.18359375 69.58984375 C93.11300781 68.73519531 94.04242188 67.88054687 95 67 C96.03077098 66.08263022 97.06335094 65.16728933 98.09765625 64.25390625 C98.60288818 63.80466797 99.10812012 63.35542969 99.62866211 62.89257812 C101.06575102 61.61516576 102.50547626 60.34072115 103.9453125 59.06640625 C106.23503107 57.24930597 106.23503107 57.24930597 106 55 C104.55316948 53.49726114 104.55316948 53.49726114 102.625 51.9375 C98.47079964 48.41048797 94.42582271 44.77986783 90.39453125 41.11328125 C86.23460308 36.83989189 86.23460308 36.83989189 81 35 Z " fill="#18B733" transform="translate(19,44)"/>
<path d="M0 0 C5.56835907 -0.12408068 11.13590436 -0.21456522 16.70532227 -0.2746582 C18.59771757 -0.29972197 20.49001683 -0.33378253 22.38208008 -0.37719727 C25.11043043 -0.4382101 27.8374955 -0.46629069 30.56640625 -0.48828125 C31.82463951 -0.52699089 31.82463951 -0.52699089 33.10829163 -0.56648254 C38.34141777 -0.56895201 41.49962088 0.39163489 45.70274353 3.53279114 C47.26206766 5.2964009 47.48493891 6.73568791 48 9 C49.88316159 10.10836423 49.88316159 10.10836423 52 11 C53.75 12.5 53.75 12.5 55 14 C55 14.66 55 15.32 55 16 C56.32 16.66 57.64 17.32 59 18 C59 18.99 59 19.98 59 21 C59.59386002 21.11618179 60.18772003 21.23236359 60.79957581 21.35206604 C64.57147901 22.46273561 66.96678894 24.74593286 69 28 C69.83880157 31.71939475 69.77129025 35.32987265 69.69140625 39.12890625 C69.69003159 40.1961644 69.68865692 41.26342255 69.6872406 42.36302185 C69.67819981 44.6131291 69.65462005 46.86321903 69.61743164 49.11303711 C69.56262659 52.55455096 69.55590313 55.9936419 69.55664062 59.43554688 C69.54189416 61.6250209 69.52440877 63.81447856 69.50390625 66.00390625 C69.49889854 67.5446859 69.49889854 67.5446859 69.49378967 69.11659241 C69.31229631 78.23199018 69.31229631 78.23199018 66 82 C65.34 82 64.68 82 64 82 C64 82.66 64 83.32 64 84 C63.01 84 62.02 84 61 84 C60.9175 84.5775 60.835 85.155 60.75 85.75 C59.78202213 88.6539336 58.31305716 90.03740604 56 92 C55.34 92 54.68 92 54 92 C54.04125 92.969375 54.0825 93.93875 54.125 94.9375 C53.34942603 100.95743127 47.49204501 104.5169834 43 108 C40.56032503 109.21983748 39.00095476 109.12051527 36.27490234 109.11352539 C35.29403656 109.11344986 34.31317078 109.11337433 33.30258179 109.11329651 C32.24108917 109.10813522 31.17959656 109.10297394 30.0859375 109.09765625 C29.00116119 109.0962413 27.91638489 109.09482635 26.79873657 109.09336853 C23.32413 109.08775802 19.84958719 109.07520372 16.375 109.0625 C14.02343843 109.05748635 11.67187585 109.05292321 9.3203125 109.04882812 C3.54685314 109.03778518 -2.22656888 109.02103679 -8 109 C-8.33 107.68 -8.66 106.36 -9 105 C-8.54322876 104.61428329 -8.08645752 104.22856659 -7.61584473 103.8311615 C-1.66246591 98.72160323 3.87628891 93.25235201 9.40625 87.69140625 C10.38108645 86.7146999 11.35614749 85.73821766 12.3314209 84.76194763 C14.87186301 82.21772539 17.40928509 79.67051264 19.94604492 77.12261963 C22.54551127 74.51284118 25.14788494 71.90596518 27.75 69.29882812 C32.83614918 64.20202128 37.9191047 59.10204492 43 54 C39.26689771 48.77776748 35.36037482 44.10860906 30.7265625 39.671875 C29.56094628 38.53150715 28.39558884 37.39087474 27.23046875 36.25 C25.41691905 34.48637358 23.60026626 32.72616246 21.77880859 30.97070312 C20.0026861 29.25478014 18.23904822 27.52678575 16.4765625 25.796875 C15.6517186 25.01240997 15.6517186 25.01240997 14.81021118 24.21209717 C13.29150391 22.71386719 13.29150391 22.71386719 11 20 C11 18.68 11 17.36 11 16 C10.34 16 9.68 16 9 16 C8.67 14.68 8.34 13.36 8 12 C7.34 12 6.68 12 6 12 C4.2856382 10.04072937 2.61594832 8.04119788 1 6 C1.66 6 2.32 6 3 6 C2.34 5.34 1.68 4.68 1 4 C0.34 3.34 -0.32 2.68 -1 2 C-0.67 1.34 -0.34 0.68 0 0 Z " fill="#14BA30" transform="translate(28,47)"/>
<path d="M0 0 C1.59142319 0.0001133 1.59142319 0.0001133 3.21499634 0.00022888 C4.93847794 0.00797081 4.93847794 0.00797081 6.69677734 0.01586914 C7.87033783 0.01728409 9.04389832 0.01869904 10.25302124 0.02015686 C14.0129447 0.0257685 17.77280929 0.03832301 21.53271484 0.05102539 C24.07698482 0.05603889 26.62125572 0.06060206 29.16552734 0.06469727 C35.41294337 0.07574171 41.6603249 0.09249121 47.90771484 0.11352539 C47.90771484 4.11352539 47.90771484 4.11352539 46.22802734 6.25415039 C45.50357422 6.95024414 44.77912109 7.64633789 44.03271484 8.36352539 C43.31341797 9.06993164 42.59412109 9.77633789 41.85302734 10.50415039 C39.90771484 12.11352539 39.90771484 12.11352539 37.90771484 12.11352539 C37.90771484 12.77352539 37.90771484 13.43352539 37.90771484 14.11352539 C35.53271484 16.73852539 35.53271484 16.73852539 32.90771484 19.11352539 C32.24771484 19.11352539 31.58771484 19.11352539 30.90771484 19.11352539 C30.70146484 19.69102539 30.49521484 20.26852539 30.28271484 20.86352539 C28.76637491 23.34480892 27.20371561 24.27873552 24.75927734 25.76586914 C21.43836139 28.18299151 18.75408223 31.29185392 15.95849609 34.28540039 C13.90771484 36.11352539 13.90771484 36.11352539 10.90771484 36.11352539 C10.84583984 36.67040039 10.78396484 37.22727539 10.72021484 37.80102539 C9.55099057 41.12881757 7.55448681 42.84486371 4.90771484 45.11352539 C3.91771484 45.11352539 2.92771484 45.11352539 1.90771484 45.11352539 C1.80458984 45.71165039 1.70146484 46.30977539 1.59521484 46.92602539 C0.76281648 49.57456565 0.22817299 50.56655329 -2.09228516 52.11352539 C-5.46728516 52.61352539 -5.46728516 52.61352539 -9.09228516 52.11352539 C-11.71728516 49.73852539 -11.71728516 49.73852539 -14.09228516 47.11352539 C-15.32978516 46.68040039 -15.32978516 46.68040039 -16.59228516 46.23852539 C-20.2845216 44.57701899 -22.15590968 41.60724114 -24.09228516 38.11352539 C-24.09228516 37.45352539 -24.09228516 36.79352539 -24.09228516 36.11352539 C-24.89666016 35.88665039 -25.70103516 35.65977539 -26.52978516 35.42602539 C-27.37541016 34.99290039 -28.22103516 34.55977539 -29.09228516 34.11352539 C-29.90478516 31.48852539 -29.90478516 31.48852539 -30.09228516 29.11352539 C-28.77228516 29.11352539 -27.45228516 29.11352539 -26.09228516 29.11352539 C-25.82416016 28.14415039 -25.55603516 27.17477539 -25.27978516 26.17602539 C-24.88791016 25.16540039 -24.49603516 24.15477539 -24.09228516 23.11352539 C-23.10228516 22.78352539 -22.11228516 22.45352539 -21.09228516 22.11352539 C-21.23666016 21.26790039 -21.38103516 20.42227539 -21.52978516 19.55102539 C-20.96491505 15.11276029 -19.31900335 13.91244765 -16.10791016 10.98852539 C-13.35535486 8.42800884 -10.99403806 5.58516842 -8.57275391 2.71508789 C-5.89813566 -0.1782986 -3.78944308 -0.00897972 0 0 Z " fill="#15BA30" transform="translate(133.09228515625,43.886474609375)"/>
<path d="M0 0 C6.97389356 -0.17810915 13.94719672 -0.30033255 20.92285156 -0.38452148 C23.29351722 -0.41963167 25.6640323 -0.46733255 28.03417969 -0.52807617 C31.4502483 -0.61340618 34.86430674 -0.65278437 38.28125 -0.68359375 C39.85984802 -0.73778725 39.85984802 -0.73778725 41.47033691 -0.79307556 C46.88982333 -0.7959397 50.22094116 -0.38816706 54.40307617 3.21508789 C55.62575466 4.45376714 56.82695086 5.71422215 58 7 C59.38022339 8.33973877 59.38022339 8.33973877 60.78833008 9.70654297 C61.60712646 10.54330566 62.42592285 11.38006836 63.26953125 12.2421875 C64.17767578 13.16257812 65.08582031 14.08296875 66.02148438 15.03125 C67.42905495 16.46541568 68.83657337 17.89963705 70.2409668 19.33691406 C71.62109409 20.74715236 73.00771862 22.15102297 74.39453125 23.5546875 C75.61426636 24.79968018 75.61426636 24.79968018 76.85864258 26.06982422 C78.9356586 28.20093259 78.9356586 28.20093259 82 29 C82.24621094 28.42765625 82.49242188 27.8553125 82.74609375 27.265625 C84.20211235 24.63481257 85.91777234 22.85191095 88.0625 20.75 C88.77535156 20.04359375 89.48820312 19.3371875 90.22265625 18.609375 C92 17 92 17 93 17 C93.1875 19.3125 93.1875 19.3125 93 22 C91.625 23.5625 91.625 23.5625 90 25 C88.82425289 27.09989652 88.82425289 27.09989652 88 29 C86.68 29 85.36 29 84 29 C84.10613836 31.45224694 84.10613836 31.45224694 85 34 C85.77988281 34.29132813 86.55976562 34.58265625 87.36328125 34.8828125 C91.27030224 36.53823176 92.33402012 39.33453521 94.375 42.90625 C96.34525242 45.44484447 98.06385987 45.83307251 101 47 C102.3125 49.125 102.3125 49.125 103 51 C104.43655854 51.08131463 105.8744483 51.13933559 107.3125 51.1875 C108.11300781 51.22230469 108.91351563 51.25710937 109.73828125 51.29296875 C112.05829913 51.18434168 112.05829913 51.18434168 113.73046875 49.67578125 C115.20745641 47.91230916 115.20745641 47.91230916 116 45 C117.64333504 43.96210419 119.31243867 42.96432076 121 42 C123.40879165 39.93532144 123.96331553 39.11005341 125 36 C126.65444263 34.97990325 128.32328852 33.98306479 130 33 C131.64760066 31.48336919 133.25248462 29.91908301 134.8125 28.3125 C135.99779297 27.10013672 135.99779297 27.10013672 137.20703125 25.86328125 C138.09455078 24.94095703 138.09455078 24.94095703 139 24 C139.66 24.33 140.32 24.66 141 25 C140.08597412 25.8878418 139.17194824 26.77568359 138.23022461 27.69042969 C134.85015886 30.98016005 131.48653348 34.28627649 128.12768555 37.59765625 C126.67022419 39.02993575 125.20831213 40.45770063 123.74194336 41.88085938 C121.6377681 43.92454938 119.55000979 45.98381609 117.46484375 48.046875 C116.80346909 48.68244324 116.14209442 49.31801147 115.4606781 49.97283936 C114.85998001 50.57315979 114.25928192 51.17348022 113.64038086 51.79199219 C113.10521347 52.31605652 112.57004608 52.84012085 112.0186615 53.38006592 C110.75452226 54.99874396 110.75452226 54.99874396 111.3349762 57.20050049 C111.55443405 57.79433533 111.77389191 58.38817017 112 59 C110.6696875 58.814375 110.6696875 58.814375 109.3125 58.625 C106.08203101 58.65916175 106.08203101 58.65916175 104.55859375 60.3359375 C103.34978449 61.87310987 102.17332124 63.43557168 101 65 C100.34 65 99.68 65 99 65 C98.855625 66.093125 98.71125 67.18625 98.5625 68.3125 C98.01953125 70.265625 98.01953125 70.265625 97 72 C94.81743095 73.04479979 92.67153781 73.58290777 90.33203125 74.19140625 C86.4367904 75.5420174 84.57545382 77.83021068 82 81 C82 81.99 82 82.98 82 84 C80.33783688 85.00746789 78.66977262 86.00519491 77 87 C74.45195147 89.28696911 72.07571266 91.73533932 69.6875 94.1875 C69.04232422 94.84169922 68.39714844 95.49589844 67.73242188 96.16992188 C66.15029484 97.77548783 64.5730487 99.3855469 63 101 C62.01 100.505 62.01 100.505 61 100 C62.00556306 96.48052928 63.24245062 94.59993105 66.0625 92.375 C69.2107551 90.26591005 69.2107551 90.26591005 70 87 C70.99 87 71.98 87 73 87 C73 86.34 73 85.68 73 85 C73.99 84.34 74.98 83.68 76 83 C76.95453679 80.13638963 77.15280285 78.23628226 77.20874023 75.2565918 C77.22803085 74.29516769 77.24732147 73.33374359 77.26719666 72.34318542 C77.32502177 67.95156727 77.37419913 63.56011019 77.4050293 59.16821289 C77.42662774 56.85295717 77.46075197 54.53778349 77.50756836 52.22290039 C77.57451944 48.88130303 77.60201966 45.54139191 77.62109375 42.19921875 C77.66283974 40.65206429 77.66283974 40.65206429 77.70542908 39.07365417 C77.69152888 34.20957073 77.61858686 30.97919917 74.14868164 27.36254883 C71.20084097 24.89115376 71.20084097 24.89115376 68 24 C67.33333333 22.66666667 66.66666667 21.33333333 66 20 C64.3777546 18.29006566 62.70586575 16.62652316 61 15 C59.2958946 13.37163262 57.61974559 11.71230248 56 10 C56 9.34 56 8.68 56 8 C55.401875 7.71125 54.80375 7.4225 54.1875 7.125 C52 6 52 6 49 4 C47.08551948 3.67539843 47.08551948 3.67539843 44.98754883 3.68115234 C44.18694534 3.66128265 43.38634186 3.64141296 42.56147766 3.62094116 C41.70201035 3.60938995 40.84254303 3.59783875 39.95703125 3.5859375 C39.0734343 3.56657135 38.18983734 3.5472052 37.27946472 3.5272522 C34.45724134 3.46747195 31.63497714 3.42107734 28.8125 3.375 C26.89907075 3.33681878 24.98565867 3.29776696 23.07226562 3.2578125 C18.38164979 3.16177168 13.69095348 3.0777349 9 3 C9.33 3.99 9.66 4.98 10 6 C10.66 6 11.32 6 12 6 C12.12375 6.7425 12.2475 7.485 12.375 8.25 C12.95486701 10.80141485 13.73708739 12.7267573 15 15 C15.66 15 16.32 15 17 15 C17.33 16.32 17.66 17.64 18 19 C18.66 19 19.32 19 20 19 C19.67 19.99 19.34 20.98 19 22 C18.60208252 21.5968457 18.20416504 21.19369141 17.79418945 20.77832031 C15.96965943 18.93285523 14.1411223 17.09140987 12.3125 15.25 C11.68666016 14.61578125 11.06082031 13.9815625 10.41601562 13.328125 C7.70921016 10.60714778 5.12833089 8.09561245 2.04296875 5.796875 C1.36878906 5.20390625 0.69460937 4.6109375 0 4 C0 2.68 0 1.36 0 0 Z M81 35 C81 49.19 81 63.38 81 78 C84.59204575 76.20397712 86.6637162 74.67433101 89.5625 72 C90.42746094 71.20464844 91.29242188 70.40929687 92.18359375 69.58984375 C93.11300781 68.73519531 94.04242188 67.88054687 95 67 C96.03077098 66.08263022 97.06335094 65.16728933 98.09765625 64.25390625 C98.60288818 63.80466797 99.10812012 63.35542969 99.62866211 62.89257812 C101.06575102 61.61516576 102.50547626 60.34072115 103.9453125 59.06640625 C106.23503107 57.24930597 106.23503107 57.24930597 106 55 C104.55316948 53.49726114 104.55316948 53.49726114 102.625 51.9375 C98.47079964 48.41048797 94.42582271 44.77986783 90.39453125 41.11328125 C86.23460308 36.83989189 86.23460308 36.83989189 81 35 Z " fill="#3A9048" transform="translate(19,44)"/>
<path d="M0 0 C6.97389356 -0.17810915 13.94719672 -0.30033255 20.92285156 -0.38452148 C23.29351722 -0.41963167 25.6640323 -0.46733255 28.03417969 -0.52807617 C31.4502483 -0.61340618 34.86430674 -0.65278437 38.28125 -0.68359375 C39.85984802 -0.73778725 39.85984802 -0.73778725 41.47033691 -0.79307556 C46.99732894 -0.79599651 50.27300325 -0.33983298 54.52539062 3.34741211 C55.70478556 4.54442492 56.86444721 5.76131847 58 7 C59.10345929 8.04241598 60.20758221 9.0841301 61.3125 10.125 C64 13 64 13 65.25317383 15.35668945 C67.10520746 18.15920072 69.19264677 19.71483016 71.84687805 21.72151184 C77.17666634 26.02877175 80.23096556 29.89699729 81.06103516 36.83447266 C81.43868507 43.6734291 81.13708458 50.47737997 80.8125 57.3125 C80.74719115 59.71012895 80.68789312 62.10792958 80.63476562 64.50585938 C80.49250852 70.3410269 80.27588707 76.16970208 80 82 C78.515 82.495 78.515 82.495 77 83 C77.01332367 82.36186371 77.02664734 81.72372742 77.04037476 81.06625366 C77.17327391 74.41530545 77.26367682 67.76473525 77.32958984 61.11279297 C77.35973467 58.63151729 77.40065815 56.15034793 77.45263672 53.66943359 C77.52554743 50.09966794 77.55948098 46.53131271 77.5859375 42.9609375 C77.61690521 41.85446869 77.64787292 40.74799988 77.67977905 39.60800171 C77.71301996 32.82600815 77.71301996 32.82600815 74.15087891 27.31494141 C71.1934665 24.89401507 71.1934665 24.89401507 68 24 C67.33333333 22.66666667 66.66666667 21.33333333 66 20 C64.3777546 18.29006566 62.70586575 16.62652316 61 15 C59.2958946 13.37163262 57.61974559 11.71230248 56 10 C56 9.34 56 8.68 56 8 C55.401875 7.71125 54.80375 7.4225 54.1875 7.125 C52 6 52 6 49 4 C47.08551948 3.67539843 47.08551948 3.67539843 44.98754883 3.68115234 C44.18694534 3.66128265 43.38634186 3.64141296 42.56147766 3.62094116 C41.70201035 3.60938995 40.84254303 3.59783875 39.95703125 3.5859375 C39.0734343 3.56657135 38.18983734 3.5472052 37.27946472 3.5272522 C34.45724134 3.46747195 31.63497714 3.42107734 28.8125 3.375 C26.89907075 3.33681878 24.98565867 3.29776696 23.07226562 3.2578125 C18.38164979 3.16177168 13.69095348 3.0777349 9 3 C9.33 3.99 9.66 4.98 10 6 C10.66 6 11.32 6 12 6 C12.12375 6.7425 12.2475 7.485 12.375 8.25 C12.95486701 10.80141485 13.73708739 12.7267573 15 15 C15.66 15 16.32 15 17 15 C17.33 16.32 17.66 17.64 18 19 C18.66 19 19.32 19 20 19 C19.67 19.99 19.34 20.98 19 22 C18.60208252 21.5968457 18.20416504 21.19369141 17.79418945 20.77832031 C15.96965943 18.93285523 14.1411223 17.09140987 12.3125 15.25 C11.68666016 14.61578125 11.06082031 13.9815625 10.41601562 13.328125 C7.70921016 10.60714778 5.12833089 8.09561245 2.04296875 5.796875 C1.36878906 5.20390625 0.69460937 4.6109375 0 4 C0 2.68 0 1.36 0 0 Z " fill="#359F46" transform="translate(19,44)"/>
<path d="M0 0 C4.67908305 3.89923587 9.00181998 7.95191098 13.203125 12.36328125 C15.0053327 14.22680736 15.0053327 14.22680736 18 15 C18.5625 16.875 18.5625 16.875 19 19 C19.66 19.99 20.32 20.98 21 22 C19.68 21.67 18.36 21.34 17 21 C17 35.19 17 49.38 17 64 C18.65 62.68 20.3 61.36 22 60 C22.66 60.33 23.32 60.66 24 61 C23.566875 61.39832031 23.13375 61.79664063 22.6875 62.20703125 C22.130625 62.73683594 21.57375 63.26664063 21 63.8125 C20.443125 64.33457031 19.88625 64.85664062 19.3125 65.39453125 C17.683535 67.04148967 17.683535 67.04148967 18 70 C16.33783688 71.00746789 14.66977262 72.00519491 13 73 C10.45195147 75.28696911 8.07571266 77.73533932 5.6875 80.1875 C5.04232422 80.84169922 4.39714844 81.49589844 3.73242188 82.16992188 C2.15029484 83.77548783 0.5730487 85.3855469 -1 87 C-1.66 86.67 -2.32 86.34 -3 86 C-1.99443694 82.48052928 -0.75754938 80.59993105 2.0625 78.375 C5.2107551 76.26591005 5.2107551 76.26591005 6 73 C6.99 73 7.98 73 9 73 C9 72.34 9 71.68 9 71 C13.38461538 68 13.38461538 68 16 68 C16.23981373 61.01111783 16.35798293 54.02728397 16.39672852 47.03442383 C16.42361035 44.66286677 16.47704671 42.29144123 16.55883789 39.92114258 C17.4251109 25.11541536 17.4251109 25.11541536 11.56298828 12.07080078 C8.42734847 8.76055939 5.04216459 5.86248851 1.35414124 3.1844635 C0.90727463 2.79359055 0.46040802 2.40271759 0 2 C0 1.34 0 0.68 0 0 Z " fill="#428A4F" transform="translate(83,58)"/>
<path d="M0 0 C0 3 0 3 -2 8 C13.51 8 29.02 8 45 8 C42 11 42 11 39.77900696 11.36076355 C38.91518906 11.35410172 38.05137115 11.34743988 37.16137695 11.34057617 C36.1805867 11.34034958 35.19979645 11.34012299 34.18928528 11.33988953 C33.13295395 11.32440567 32.07662262 11.30892181 30.98828125 11.29296875 C29.90491989 11.28872391 28.82155853 11.28447906 27.70536804 11.28010559 C24.24082723 11.26329569 20.77686538 11.22563848 17.3125 11.1875 C14.96550318 11.17245619 12.61849726 11.15876726 10.27148438 11.14648438 C4.51412495 11.11338461 -1.24289617 11.06316205 -7 11 C-7.33 9.68 -7.66 8.36 -8 7 C-5.36 4.69 -2.72 2.38 0 0 Z " fill="#3DA04A" transform="translate(27,145)"/>
<path d="M0 0 C1.59142319 0.0001133 1.59142319 0.0001133 3.21499634 0.00022888 C4.93847794 0.00797081 4.93847794 0.00797081 6.69677734 0.01586914 C7.87033783 0.01728409 9.04389832 0.01869904 10.25302124 0.02015686 C14.0129447 0.0257685 17.77280929 0.03832301 21.53271484 0.05102539 C24.07698482 0.05603889 26.62125572 0.06060206 29.16552734 0.06469727 C35.41294337 0.07574171 41.6603249 0.09249121 47.90771484 0.11352539 C47.90771484 4.11352539 47.90771484 4.11352539 46.37646484 6.03540039 C45.72677734 6.63868164 45.07708984 7.24196289 44.40771484 7.86352539 C43.75802734 8.47711914 43.10833984 9.09071289 42.43896484 9.72290039 C41.93365234 10.18180664 41.42833984 10.64071289 40.90771484 11.11352539 C40.90771484 8.11352539 40.90771484 8.11352539 43.90771484 2.11352539 C27.73771484 2.11352539 11.56771484 2.11352539 -5.09228516 2.11352539 C-5.75228516 3.43352539 -6.41228516 4.75352539 -7.09228516 6.11352539 C-8.08228516 6.44352539 -9.07228516 6.77352539 -10.09228516 7.11352539 C-10.42228516 8.10352539 -10.75228516 9.09352539 -11.09228516 10.11352539 C-12.93994141 11.93774414 -12.93994141 11.93774414 -15.15478516 13.80102539 C-15.88826172 14.42364258 -16.62173828 15.04625977 -17.37744141 15.68774414 C-18.22628906 16.39350586 -18.22628906 16.39350586 -19.09228516 17.11352539 C-19.75228516 16.78352539 -20.41228516 16.45352539 -21.09228516 16.11352539 C-20.45613281 15.49477539 -20.45613281 15.49477539 -19.80712891 14.86352539 C-15.85456066 10.97176588 -12.14973038 6.95507373 -8.57275391 2.71508789 C-5.89813566 -0.1782986 -3.78944308 -0.00897972 0 0 Z " fill="#4E945A" transform="translate(133.09228515625,43.886474609375)"/>
<path d="M0 0 C5.031965 3.45049029 9.18448724 7.03429556 13.03102112 11.77748108 C14.95627482 14.05357001 14.95627482 14.05357001 17.28575134 15.95457458 C21.78295101 19.83434379 24.54345033 22.6299623 25.02172852 28.70336914 C25.02032207 30.81450123 24.97054591 32.92601357 24.87890625 35.03515625 C24.86617172 36.15442001 24.85343719 37.27368378 24.84031677 38.42686462 C24.79024737 41.97435414 24.67739741 45.51657808 24.5625 49.0625 C24.51731952 51.47844133 24.47626122 53.89446349 24.43945312 56.31054688 C24.34064381 62.20880395 24.19037839 68.10402583 24 74 C22.515 74.495 22.515 74.495 21 75 C21.01332367 74.36186371 21.02664734 73.72372742 21.04037476 73.06625366 C21.17327391 66.41530545 21.26367682 59.76473525 21.32958984 53.11279297 C21.35973467 50.63151729 21.40065815 48.15034793 21.45263672 45.66943359 C21.52554743 42.09966794 21.55948098 38.53131271 21.5859375 34.9609375 C21.61690521 33.85446869 21.64787292 32.74799988 21.67977905 31.60800171 C21.71301996 24.82600815 21.71301996 24.82600815 18.15087891 19.31494141 C15.1934665 16.89401507 15.1934665 16.89401507 12 16 C11.33333333 14.66666667 10.66666667 13.33333333 10 12 C8.3777546 10.29006566 6.70586575 8.62652316 5 7 C3.2958946 5.37163262 1.61974559 3.71230248 0 2 C0 1.34 0 0.68 0 0 Z " fill="#22A039" transform="translate(75,52)"/>
<path d="M0 0 C4.11018964 3.35973367 7.94640442 6.60282237 11 11 C11 11.66 11 12.32 11 13 C-6.67435232 13.22953704 -24.33690395 12.55390526 -42 12 C-42.33 11.34 -42.66 10.68 -43 10 C-28.81 10.33 -14.62 10.66 0 11 C0 10.34 0 9.68 0 9 C0.99 8.67 1.98 8.34 3 8 C2.505 7.05125 2.01 6.1025 1.5 5.125 C0 2 0 2 0 0 Z " fill="#29A63D" transform="translate(169,142)"/>
<path d="M0 0 C16.17 0 32.34 0 49 0 C46.75 6.75 46.75 6.75 45 10 C44.34 10 43.68 10 43 10 C43 10.66 43 11.32 43 12 C40.625 14.625 40.625 14.625 38 17 C37.34 17 36.68 17 36 17 C36 15.68 36 14.36 36 13 C36.66 13 37.32 13 38 13 C38.66 11.68 39.32 10.36 40 9 C40.66 9 41.32 9 42 9 C42 8.34 42 7.68 42 7 C42.66 7 43.32 7 44 7 C44.33 6.01 44.66 5.02 45 4 C45.66 4 46.32 4 47 4 C47 3.01 47 2.02 47 1 C31.49 1.33 15.98 1.66 0 2 C0 1.34 0 0.68 0 0 Z " fill="#29AB3D" transform="translate(128,46)"/>
<path d="M0 0 C0.99 0 1.98 0 3 0 C4.37482707 1.63260714 5.70647667 3.30225062 7 5 C7.99 5.66 8.98 6.32 10 7 C10 7.66 10 8.32 10 9 C11.32 9.33 12.64 9.66 14 10 C14 10.66 14 11.32 14 12 C14.66 12 15.32 12 16 12 C17.6875 13.625 17.6875 13.625 19 16 C18.87296672 19.11231543 18.62169363 21.16071359 16.75 23.6875 C14.59753499 25.30184876 12.30630248 26.61621851 10 28 C8.24850835 29.58245275 8.24850835 29.58245275 7 31 C6.34 30.67 5.68 30.34 5 30 C8.63 26.37 12.26 22.74 16 19 C11.81860085 13.05801173 7.20224332 8.05231471 1.9765625 3.00390625 C0 1 0 1 0 0 Z " fill="#349745" transform="translate(55,82)"/>
<path d="M0 0 C0.1875 2.3125 0.1875 2.3125 0 5 C-1.375 6.5625 -1.375 6.5625 -3 8 C-4.17574711 10.09989652 -4.17574711 10.09989652 -5 12 C-6.32 12 -7.64 12 -9 12 C-8.89386164 14.45224694 -8.89386164 14.45224694 -8 17 C-5.60931266 18.10636395 -5.60931266 18.10636395 -3 19 C-1.1875 21.125 -1.1875 21.125 0 23 C-0.33 23.66 -0.66 24.32 -1 25 C-1.5775 24.38125 -2.155 23.7625 -2.75 23.125 C-4.80494135 20.95417758 -4.80494135 20.95417758 -7.0625 20.0625 C-9.85553097 18.53083786 -10.78139752 16.91110592 -12 14 C-10.82737985 9.693286 -8.6042368 7.25257591 -5.4375 4.1875 C-4.63183594 3.39730469 -3.82617188 2.60710938 -2.99609375 1.79296875 C-1 0 -1 0 0 0 Z " fill="#309B41" transform="translate(112,61)"/>
<path d="M0 0 C0.33 0.66 0.66 1.32 1 2 C0.22265625 3.7265625 0.22265625 3.7265625 -0.9375 5.625 C-1.618125 6.73875 -2.29875 7.8525 -3 9 C-3.66 9 -4.32 9 -5 9 C-5.226875 9.5775 -5.45375 10.155 -5.6875 10.75 C-7.34051439 13.58373895 -9.39642213 15.03144113 -12 17 C-12.495 17.556875 -12.99 18.11375 -13.5 18.6875 C-15.52392064 20.45843056 -17.37879014 20.64578245 -20 21 C-15.76183463 15.93376232 -11.32591037 11.19961931 -6.625 6.5625 C-5.98433594 5.92634766 -5.34367187 5.29019531 -4.68359375 4.63476562 C-3.12469121 3.08749668 -1.56348584 1.54263508 0 0 Z " fill="#35A044" transform="translate(48,124)"/>
<path d="M0 0 C0.66 0.33 1.32 0.66 2 1 C1.08597412 1.8878418 0.17194824 2.77568359 -0.76977539 3.69042969 C-4.14984114 6.98016005 -7.51346652 10.28627649 -10.87231445 13.59765625 C-12.32977581 15.02993575 -13.79168787 16.45770063 -15.25805664 17.88085938 C-17.3622319 19.92454938 -19.44999021 21.98381609 -21.53515625 24.046875 C-22.19653091 24.68244324 -22.85790558 25.31801147 -23.5393219 25.97283936 C-24.14001999 26.57315979 -24.74071808 27.17348022 -25.35961914 27.79199219 C-25.89478653 28.31605652 -26.42995392 28.84012085 -26.9813385 29.38006592 C-28.24547774 30.99874396 -28.24547774 30.99874396 -27.6650238 33.20050049 C-27.44556595 33.79433533 -27.22610809 34.38817017 -27 35 C-28.32 34.34 -29.64 33.68 -31 33 C-29.43909056 29.16867684 -26.8924866 26.8924866 -24 24 C-23.67 23.01 -23.34 22.02 -23 21 C-21.35666496 19.96210419 -19.68756133 18.96432076 -18 18 C-15.59120835 15.93532144 -15.03668447 15.11005341 -14 12 C-12.34555737 10.97990325 -10.67671148 9.98306479 -9 9 C-7.35239934 7.48336919 -5.74751538 5.91908301 -4.1875 4.3125 C-3.00220703 3.10013672 -3.00220703 3.10013672 -1.79296875 1.86328125 C-1.20128906 1.24839844 -0.60960937 0.63351563 0 0 Z " fill="#4C9056" transform="translate(158,68)"/>
<path d="M0 0 C0 0.99 0 1.98 0 3 C-0.66 3 -1.32 3 -2 3 C-1.814375 3.886875 -1.62875 4.77375 -1.4375 5.6875 C-0.86983273 9.98555219 -1.64529763 12.93589289 -3 17 C-3.66 16.67 -4.32 16.34 -5 16 C-5 15.34 -5 14.68 -5 14 C-5.66 14 -6.32 14 -7 14 C-7.66 12.02 -8.32 10.04 -9 8 C-7.87811441 6.85111717 -6.75238316 5.70598863 -5.625 4.5625 C-4.99851562 3.92441406 -4.37203125 3.28632812 -3.7265625 2.62890625 C-2 1 -2 1 0 0 Z " fill="#23A135" transform="translate(109,117)"/>
<path d="M0 0 C12.87 0 25.74 0 39 0 C37.193388 3.61322401 36.33581029 4.83748791 33.375 7.25 C32.74335938 7.77078125 32.11171875 8.2915625 31.4609375 8.828125 C30.97882813 9.21484375 30.49671875 9.6015625 30 10 C30.433125 9.1646875 30.433125 9.1646875 30.875 8.3125 C32.03461227 5.92885257 33.01553616 3.46115961 34 1 C22.78 1 11.56 1 0 1 C0 0.67 0 0.34 0 0 Z " fill="#419C4D" transform="translate(143,45)"/>
<path d="M0 0 C5.82993863 3.9976722 10.69590564 8.36432645 15 14 C15 14.33 15 14.66 15 15 C13.35 15 11.7 15 10 15 C9.5978125 14.0409375 9.5978125 14.0409375 9.1875 13.0625 C8.11332248 10.66868314 8.11332248 10.66868314 5 10 C1.49041152 7.47309629 0.99348834 4.05037554 0 0 Z " fill="#2C9F41" transform="translate(135,108)"/>
<path d="M0 0 C6.78376359 5.55035203 12.85522968 11.76442027 19 18 C18.01 18.33 17.02 18.66 16 19 C16 18.34 16 17.68 16 17 C15.34 17 14.68 17 14 17 C14 16.34 14 15.68 14 15 C13.34 15 12.68 15 12 15 C12 14.34 12 13.68 12 13 C11.34 13 10.68 13 10 13 C10 12.34 10 11.68 10 11 C9.40703125 10.91621094 8.8140625 10.83242187 8.203125 10.74609375 C5.35515282 9.7816209 4.48547151 8.48602461 2.75 6.0625 C2.22921875 5.35222656 1.7084375 4.64195313 1.171875 3.91015625 C0 2 0 2 0 0 Z " fill="#2C9B42" transform="translate(150,123)"/>
<path d="M0 0 C0.79719955 0.00222061 1.59439911 0.00444122 2.41575623 0.00672913 C3.31661453 0.00680466 4.21747284 0.00688019 5.14562988 0.00695801 C6.12478867 0.01211929 7.10394745 0.01728058 8.11277771 0.02259827 C9.11018478 0.02401321 10.10759186 0.02542816 11.13522339 0.02688599 C14.3348027 0.03250337 17.53431315 0.04505881 20.73387146 0.05775452 C22.89728191 0.06276728 25.06069345 0.06733057 27.22410583 0.07142639 C32.53988471 0.08247845 37.85562317 0.09923348 43.17137146 0.12025452 C43.17137146 0.45025452 43.17137146 0.78025452 43.17137146 1.12025452 C28.98137146 1.12025452 14.79137146 1.12025452 0.17137146 1.12025452 C0.17137146 2.44025452 0.17137146 3.76025452 0.17137146 5.12025452 C-0.48862854 5.12025452 -1.14862854 5.12025452 -1.82862854 5.12025452 C-2.39112854 3.18275452 -2.39112854 3.18275452 -2.82862854 1.12025452 C-1.82862854 0.12025452 -1.82862854 0.12025452 0 0 Z " fill="#3B9B4B" transform="translate(22.828628540039063,44.87974548339844)"/>
<path d="M0 0 C0.66 0.33 1.32 0.66 2 1 C-1.53644488 6.64326311 -5.11352785 11.46256157 -10 16 C-10.66 15.67 -11.32 15.34 -12 15 C-10.99443694 11.48052928 -9.75754938 9.59993105 -6.9375 7.375 C-3.7892449 5.26591005 -3.7892449 5.26591005 -3 2 C-2.01 2 -1.02 2 0 2 C0 1.34 0 0.68 0 0 Z " fill="#3C9C46" transform="translate(92,129)"/>
<path d="M0 0 C0.99 0.33 1.98 0.66 3 1 C2.34 1 1.68 1 1 1 C1 2.32 1 3.64 1 5 C-1.20703125 6.45703125 -1.20703125 6.45703125 -4 8 C-5.603937 9.51993375 -7.166854 11.08423825 -8.6875 12.6875 C-10.08687707 14.16213769 -11.51662786 15.60988505 -13 17 C-13.66 17 -14.32 17 -15 17 C-15 16.34 -15 15.68 -15 15 C-14.34 15 -13.68 15 -13 15 C-12.814375 14.278125 -12.62875 13.55625 -12.4375 12.8125 C-10.69078985 9.39502361 -8.73433656 8.14021066 -5.55859375 6.11328125 C-3.83950206 5.06891055 -3.83950206 5.06891055 -3 3 C-2.01 3 -1.02 3 0 3 C0 2.01 0 1.02 0 0 Z " fill="#26A53B" transform="translate(160,63)"/>
<path d="M0 0 C3.375 1.125 3.375 1.125 5.3125 3.6875 C5.663125 4.491875 6.01375 5.29625 6.375 6.125 C3.4375 5.75 3.4375 5.75 0.375 5.125 C0.045 4.465 -0.285 3.805 -0.625 3.125 C-3.62759517 2.79281808 -3.62759517 2.79281808 -5.3125 4.625 C-5.745625 5.12 -6.17875 5.615 -6.625 6.125 C-7.285 5.795 -7.945 5.465 -8.625 5.125 C-4.62846021 0.15960208 -4.62846021 0.15960208 0 0 Z " fill="#26A83B" transform="translate(128.625,101.875)"/>
<path d="M0 0 C0.99 0 1.98 0 3 0 C3 0.66 3 1.32 3 2 C3.66 2 4.32 2 5 2 C5 2.66 5 3.32 5 4 C5.66 4 6.32 4 7 4 C7 4.66 7 5.32 7 6 C7.763125 6.2475 8.52625 6.495 9.3125 6.75 C12.2364045 8.10995558 13.30004356 9.31585826 15 12 C14.01 12.33 13.02 12.66 12 13 C9.99698146 11.0238076 7.99750133 9.04425526 6 7.0625 C5.42765625 6.49853516 4.8553125 5.93457031 4.265625 5.35351562 C2.82474495 3.92121224 1.41012857 2.46258871 0 1 C0 0.67 0 0.34 0 0 Z " fill="#329943" transform="translate(39,66)"/>
<path d="M0 0 C0.0825 0.763125 0.165 1.52625 0.25 2.3125 C1.15620638 5.55973954 2.17141097 6.28570362 5 8 C5.66 8.33 6.32 8.66 7 9 C6.67 10.32 6.34 11.64 6 13 C2.37 9.37 -1.26 5.74 -5 2 C-2 0 -2 0 0 0 Z " fill="#22A738" transform="translate(117,137)"/>
<path d="M0 0 C0.33 0.66 0.66 1.32 1 2 C0.22265625 3.7265625 0.22265625 3.7265625 -0.9375 5.625 C-1.618125 6.73875 -2.29875 7.8525 -3 9 C-3.66 9 -4.32 9 -5 9 C-5.33 9.66 -5.66 10.32 -6 11 C-6.99 10.34 -7.98 9.68 -9 9 C-6.03 6.03 -3.06 3.06 0 0 Z " fill="#3F9F4D" transform="translate(48,124)"/>
<path d="M0 0 C0 0.99 0 1.98 0 3 C-0.66 3 -1.32 3 -2 3 C-1.67 4.98 -1.34 6.96 -1 9 C-2.98 9.33 -4.96 9.66 -7 10 C-5.76075855 5.04303419 -4.21422242 2.88341534 0 0 Z " fill="#20B039" transform="translate(109,117)"/>
<path d="M0 0 C0.33 0.66 0.66 1.32 1 2 C0.0625 4.125 0.0625 4.125 -1 6 C-1.66 6 -2.32 6 -3 6 C-3.226875 6.639375 -3.45375 7.27875 -3.6875 7.9375 C-5 10 -5 10 -7.625 10.75 C-8.40875 10.8325 -9.1925 10.915 -10 11 C-6.79239749 7.19364503 -3.59253891 3.45436433 0 0 Z " fill="#3E994F" transform="translate(59,113)"/>
<path d="M0 0 C0.33 0.99 0.66 1.98 1 3 C0.360625 3.5775 -0.27875 4.155 -0.9375 4.75 C-2.98223868 6.98062401 -3.58205199 8.07436391 -4 11 C-5.32 10.67 -6.64 10.34 -8 10 C-7.44449305 6.40094092 -6.25112752 5.00090201 -3.4375 2.75 C-2.79683594 2.22921875 -2.15617187 1.7084375 -1.49609375 1.171875 C-1.00238281 0.78515625 -0.50867188 0.3984375 0 0 Z " fill="#23AA37" transform="translate(67,107)"/>
<path d="M0 0 C1.98 0.99 1.98 0.99 4 2 C4.33 2.99 4.66 3.98 5 5 C7.64 5.33 10.28 5.66 13 6 C12.67 6.66 12.34 7.32 12 8 C8.9375 8.625 8.9375 8.625 6 9 C4.02 6.03 2.04 3.06 0 0 Z " fill="#28A33D" transform="translate(117,90)"/>
<path d="M0 0 C4 2 4 2 5 4 C3.68 3.67 2.36 3.34 1 3 C1 8.61 1 14.22 1 20 C0.67 20 0.34 20 0 20 C0 13.4 0 6.8 0 0 Z " fill="#4F8F59" transform="translate(99,76)"/>
<path d="M0 0 C1.33333333 0.66666667 2.66666667 1.33333333 4 2 C5.0828125 2.433125 5.0828125 2.433125 6.1875 2.875 C8 4 8 4 8.75 6.125 C8.87375 7.053125 8.87375 7.053125 9 8 C9.66 8 10.32 8 11 8 C10.67 8.99 10.34 9.98 10 11 C8.33035479 9.35718838 6.6643536 7.71067239 5 6.0625 C4.071875 5.14597656 3.14375 4.22945312 2.1875 3.28515625 C0 1 0 1 0 0 Z " fill="#369847" transform="translate(28,55)"/>
<path d="M0 0 C0.33 1.32 0.66 2.64 1 4 C-3.455 7.96 -3.455 7.96 -8 12 C-8.66 11.67 -9.32 11.34 -10 11 C-9.52949219 10.54109375 -9.05898437 10.0821875 -8.57421875 9.609375 C-3.96631602 5.08450705 -3.96631602 5.08450705 0 0 Z " fill="#519560" transform="translate(122,49)"/>
<path d="M0 0 C1.65 0.33 3.3 0.66 5 1 C3.63016497 4.16115776 3.0109362 4.9927092 0 7 C-1.04449911 3.86650268 -0.93423645 3.01031744 0 0 Z " fill="#22AC38" transform="translate(139,80)"/>
<path d="M0 0 C0 4.0790169 -1.48741752 5.85927189 -4 9 C-5.32 9 -6.64 9 -8 9 C-8 8.34 -8 7.68 -8 7 C-6.25 5.2734375 -6.25 5.2734375 -4 3.375 C-3.2575 2.74335937 -2.515 2.11171875 -1.75 1.4609375 C-1.1725 0.97882812 -0.595 0.49671875 0 0 Z " fill="#2CAB43" transform="translate(120,54)"/>
<path d="M0 0 C1.12894876 0.93274109 2.25300876 1.87140122 3.375 2.8125 C4.00148437 3.33457031 4.62796875 3.85664062 5.2734375 4.39453125 C7 6 7 6 9 9 C5.18063472 7.44396229 2.73955562 5.04395069 0 2 C0 1.34 0 0.68 0 0 Z " fill="#359447" transform="translate(150,123)"/>
<path d="M0 0 C0.99 0.33 1.98 0.66 3 1 C1.02 3.31 -0.96 5.62 -3 8 C-3.33 7.01 -3.66 6.02 -4 5 C-3.01 4.67 -2.02 4.34 -1 4 C-0.26676204 1.98491642 -0.26676204 1.98491642 0 0 Z " fill="#3B994B" transform="translate(76,145)"/>
<path d="M0 0 C1.51400391 0.01740234 1.51400391 0.01740234 3.05859375 0.03515625 C4.07050781 0.04417969 5.08242188 0.05320313 6.125 0.0625 C7.29869141 0.07990234 7.29869141 0.07990234 8.49609375 0.09765625 C8.49609375 0.42765625 8.49609375 0.75765625 8.49609375 1.09765625 C5.52609375 1.09765625 2.55609375 1.09765625 -0.50390625 1.09765625 C-0.50390625 2.41765625 -0.50390625 3.73765625 -0.50390625 5.09765625 C-1.16390625 5.09765625 -1.82390625 5.09765625 -2.50390625 5.09765625 C-3.06640625 3.16015625 -3.06640625 3.16015625 -3.50390625 1.09765625 C-2.50390625 0.09765625 -2.50390625 0.09765625 0 0 Z " fill="#309441" transform="translate(23.50390625,44.90234375)"/>
<path d="M0 0 C0.66 0 1.32 0 2 0 C1.67 1.98 1.34 3.96 1 6 C-2.875 4.25 -2.875 4.25 -4 2 C-2.68 2 -1.36 2 0 2 C0 1.34 0 0.68 0 0 Z " fill="#23AB37" transform="translate(116,84)"/>
<path d="M0 0 C0.99 0 1.98 0 3 0 C2 2 1 4 0 6 C-0.66 6 -1.32 6 -2 6 C-2 4.68 -2 3.36 -2 2 C-1.34 2 -0.68 2 0 2 C0 1.34 0 0.68 0 0 Z " fill="#2FA13C" transform="translate(166,57)"/>
</svg>
